<svg width="32" height="32" viewBox="0 0 32 32" fill="none" xmlns="http://www.w3.org/2000/svg">
<rect width="32" height="32" rx="16" fill="#F9F8FF"/>
<path d="M22.1711 9.83361C21.3727 9.03255 20.4252 8.39556 19.382 7.95861C18.3121 7.50908 17.1629 7.27876 16.0023 7.28127H15.9625C13.6258 7.29065 11.4391 8.20471 9.80312 9.85705C8.16484 11.5094 7.27187 13.7031 7.28125 16.0399C7.28828 17.4531 7.63984 18.8571 8.30078 20.0969L8.40625 20.2938V23.5938H11.7062L11.9031 23.6992C13.143 24.3602 14.5469 24.7117 15.9602 24.7188H16C18.3203 24.7188 20.5 23.8235 22.143 22.1969C23.793 20.561 24.7094 18.3742 24.7234 16.0399C24.7281 14.8539 24.5008 13.7055 24.0461 12.6227C23.6089 11.5797 22.9719 10.6322 22.1711 9.83361ZM11.3125 17.125C11.0181 17.119 10.7378 16.9978 10.5317 16.7875C10.3256 16.5772 10.2102 16.2945 10.2102 16C10.2102 15.7056 10.3256 15.4228 10.5317 15.2125C10.7378 15.0022 11.0181 14.881 11.3125 14.875C11.6069 14.881 11.8872 15.0022 12.0933 15.2125C12.2993 15.4228 12.4148 15.7056 12.4148 16C12.4148 16.2945 12.2993 16.5772 12.0933 16.7875C11.8872 16.9978 11.6069 17.119 11.3125 17.125ZM16 17.125C15.7056 17.119 15.4253 16.9978 15.2192 16.7875C15.0131 16.5772 14.8977 16.2945 14.8977 16C14.8977 15.7056 15.0131 15.4228 15.2192 15.2125C15.4253 15.0022 15.7056 14.881 16 14.875C16.2944 14.881 16.5747 15.0022 16.7808 15.2125C16.9868 15.4228 17.1023 15.7056 17.1023 16C17.1023 16.2945 16.9868 16.5772 16.7808 16.7875C16.5747 16.9978 16.2944 17.119 16 17.125ZM20.6875 17.125C20.3931 17.119 20.1128 16.9978 19.9067 16.7875C19.7006 16.5772 19.5852 16.2945 19.5852 16C19.5852 15.7056 19.7006 15.4228 19.9067 15.2125C20.1128 15.0022 20.3931 14.881 20.6875 14.875C20.9819 14.881 21.2622 15.0022 21.4683 15.2125C21.6743 15.4228 21.7898 15.7056 21.7898 16C21.7898 16.2945 21.6743 16.5772 21.4683 16.7875C21.2622 16.9978 20.9819 17.119 20.6875 17.125Z" fill="white" fill-opacity="0.15"/>
<path d="M19.5625 16C19.5625 16.2984 19.681 16.5845 19.892 16.7955C20.103 17.0065 20.3891 17.125 20.6875 17.125C20.9859 17.125 21.272 17.0065 21.483 16.7955C21.694 16.5845 21.8125 16.2984 21.8125 16C21.8125 15.7016 21.694 15.4155 21.483 15.2045C21.272 14.9935 20.9859 14.875 20.6875 14.875C20.3891 14.875 20.103 14.9935 19.892 15.2045C19.681 15.4155 19.5625 15.7016 19.5625 16ZM10.1875 16C10.1875 16.2984 10.306 16.5845 10.517 16.7955C10.728 17.0065 11.0141 17.125 11.3125 17.125C11.6109 17.125 11.897 17.0065 12.108 16.7955C12.319 16.5845 12.4375 16.2984 12.4375 16C12.4375 15.7016 12.319 15.4155 12.108 15.2045C11.897 14.9935 11.6109 14.875 11.3125 14.875C11.0141 14.875 10.728 14.9935 10.517 15.2045C10.306 15.4155 10.1875 15.7016 10.1875 16Z" fill="#444444"/>
<path d="M25.6844 11.9312C25.1547 10.6727 24.3953 9.54297 23.4273 8.57266C22.4661 7.60796 21.3251 6.84114 20.0687 6.31563C18.7797 5.77422 17.4109 5.5 16 5.5H15.9531C14.5328 5.50703 13.157 5.78828 11.8633 6.34141C10.6177 6.87232 9.48733 7.64049 8.53515 8.60312C7.57656 9.57109 6.82421 10.6961 6.3039 11.95C5.76484 13.2484 5.49296 14.6289 5.5 16.0492C5.50795 17.6769 5.89302 19.2806 6.625 20.7344V24.2969C6.625 24.5828 6.73858 24.857 6.94077 25.0592C7.14296 25.2614 7.41718 25.375 7.70312 25.375H11.268C12.7218 26.107 14.3255 26.492 15.9531 26.5H16.0023C17.4062 26.5 18.768 26.2281 20.05 25.6961C21.3 25.1768 22.4368 24.419 23.3969 23.4648C24.3648 22.5063 25.1266 21.3859 25.6586 20.1367C26.2117 18.843 26.493 17.4672 26.5 16.0469C26.507 14.6195 26.2305 13.2344 25.6844 11.9312ZM22.143 22.1969C20.5 23.8234 18.3203 24.7188 16 24.7188H15.9601C14.5469 24.7117 13.143 24.3602 11.9031 23.6992L11.7062 23.5938H8.40624V20.2938L8.30078 20.0969C7.63984 18.857 7.28828 17.4531 7.28124 16.0398C7.27187 13.7031 8.16484 11.5094 9.80312 9.85703C11.4391 8.20469 13.6258 7.29062 15.9625 7.28125H16.0023C17.1742 7.28125 18.3109 7.50859 19.382 7.95859C20.4273 8.39687 21.3648 9.02734 22.1711 9.83359C22.975 10.6375 23.6078 11.5773 24.0461 12.6227C24.5008 13.7055 24.7281 14.8539 24.7234 16.0398C24.7094 18.3742 23.793 20.5609 22.143 22.1969Z" fill="#444444"/>
<path d="M14.875 16C14.875 16.2984 14.9935 16.5845 15.2045 16.7955C15.4155 17.0065 15.7016 17.125 16 17.125C16.2984 17.125 16.5845 17.0065 16.7955 16.7955C17.0065 16.5845 17.125 16.2984 17.125 16C17.125 15.7016 17.0065 15.4155 16.7955 15.2045C16.5845 14.9935 16.2984 14.875 16 14.875C15.7016 14.875 15.4155 14.9935 15.2045 15.2045C14.9935 15.4155 14.875 15.7016 14.875 16Z" fill="#444444"/>
</svg>
