<svg width="242" height="128" viewBox="0 0 242 128" fill="none" xmlns="http://www.w3.org/2000/svg">
<g filter="url(#filter0_d_119_1448)">
<rect x="6" y="2" width="230" height="116" rx="12" fill="white" fill-opacity="0.9" shape-rendering="crispEdges"/>
<line x1="25" y1="59.5" x2="225" y2="59.5" stroke="#E2E8F0"/>
<line x1="25" y1="77.5" x2="225" y2="77.5" stroke="#E2E8F0"/>
<line x1="25" y1="95.5" x2="225" y2="95.5" stroke="#E2E8F0"/>
<rect x="38" y="70" width="16" height="25" rx="4" fill="#E5D64B"/>
<rect x="68" y="57" width="16" height="38" rx="4" fill="#E5D64B"/>
<rect x="98" y="64" width="16" height="31" rx="4" fill="#D53669"/>
<rect x="128" y="48" width="16" height="47" rx="4" fill="#E5D64B"/>
<rect x="158" y="89" width="16" height="6" rx="3" fill="#D53669"/>
<rect x="188" y="86" width="16" height="9" rx="4" fill="#D53669"/>
<path d="M42.7261 103H44.9511V102.28H43.5061V99.46H42.7261V103ZM47.5767 100.57H46.8267V101.78C46.8267 102.095 46.7667 102.4 46.3767 102.4C45.9917 102.4 45.9867 102.04 45.9867 101.76V100.57H45.2367V101.91C45.2367 102.56 45.3767 103.06 46.1367 103.06C46.5017 103.06 46.7467 102.86 46.8467 102.67H46.8567V103H47.5767V100.57ZM48.0578 103H48.8078V101.79C48.8078 101.475 48.8678 101.17 49.2578 101.17C49.6428 101.17 49.6478 101.53 49.6478 101.81V103H50.3978V101.66C50.3978 101.01 50.2578 100.51 49.4978 100.51C49.1328 100.51 48.8878 100.71 48.7878 100.9H48.7778V100.57H48.0578V103Z" fill="#2B2B39"/>
<path d="M71.6883 103H72.4683V100.285H72.4783L73.3733 103H73.9683L74.8983 100.285H74.9083V103H75.6883V99.46H74.5133L73.6933 101.77H73.6833L72.8683 99.46H71.6883V103ZM77.79 103H78.48V101.765C78.48 100.955 78.245 100.51 77.37 100.51C76.975 100.51 76.575 100.64 76.3 100.9L76.7 101.31C76.86 101.13 77.065 101.02 77.31 101.02C77.57 101.02 77.79 101.19 77.79 101.455C77.165 101.455 76.145 101.47 76.145 102.31C76.145 102.8 76.555 103.06 77.01 103.06C77.315 103.06 77.615 102.955 77.78 102.695H77.79V103ZM77.79 101.935V102.095C77.79 102.395 77.515 102.55 77.22 102.55C77.055 102.55 76.865 102.465 76.865 102.285C76.865 101.955 77.375 101.935 77.605 101.935H77.79ZM78.9005 103H79.6505V101.985C79.6505 101.5 79.7205 101.17 80.2905 101.17C80.4005 101.17 80.5055 101.19 80.6105 101.22V100.535C80.5405 100.515 80.4455 100.51 80.3605 100.51C80.0305 100.51 79.8205 100.665 79.6605 100.96H79.6505V100.57H78.9005V103Z" fill="#2B2B39"/>
<path d="M101.596 103H102.376V100.285H102.386L103.281 103H103.876L104.806 100.285H104.816V103H105.596V99.46H104.421L103.601 101.77H103.591L102.776 99.46H101.596V103ZM107.947 102.195C107.822 102.365 107.657 102.49 107.412 102.49C107.122 102.49 106.907 102.305 106.847 102.02H108.587V101.785C108.587 101.01 108.147 100.51 107.447 100.51C106.697 100.51 106.097 101.01 106.097 101.785C106.097 102.56 106.697 103.06 107.447 103.06C107.837 103.06 108.232 102.885 108.472 102.58L107.947 102.195ZM106.847 101.51C106.867 101.275 107.047 101.05 107.377 101.05C107.647 101.05 107.842 101.26 107.837 101.51H106.847ZM108.993 103H109.743V101.985C109.743 101.5 109.813 101.17 110.383 101.17C110.493 101.17 110.598 101.19 110.703 101.22V100.535C110.633 100.515 110.538 100.51 110.453 100.51C110.123 100.51 109.913 100.665 109.753 100.96H109.743V100.57H108.993V103Z" fill="#2B2B39"/>
<path d="M134.619 99.46H133.839V101.73C133.839 101.995 133.834 102.4 133.469 102.4C133.299 102.4 133.139 102.26 133.119 102.09L132.404 102.265C132.519 102.83 132.929 103.09 133.489 103.09C134.449 103.09 134.619 102.47 134.619 101.815V99.46ZM136.919 102.195C136.794 102.365 136.629 102.49 136.384 102.49C136.094 102.49 135.879 102.305 135.819 102.02H137.559V101.785C137.559 101.01 137.119 100.51 136.419 100.51C135.669 100.51 135.069 101.01 135.069 101.785C135.069 102.56 135.669 103.06 136.419 103.06C136.809 103.06 137.204 102.885 137.444 102.58L136.919 102.195ZM135.819 101.51C135.839 101.275 136.019 101.05 136.349 101.05C136.619 101.05 136.814 101.26 136.809 101.51H135.819ZM140.305 100.57H139.555V101.78C139.555 102.095 139.495 102.4 139.105 102.4C138.72 102.4 138.715 102.04 138.715 101.76V100.57H137.965V101.91C137.965 102.56 138.105 103.06 138.865 103.06C139.23 103.06 139.475 102.86 139.575 102.67H139.585V103H140.305V100.57Z" fill="#2B2B39"/>
<path d="M163.529 103H164.154L165.614 99.46H164.779L163.889 101.78H163.879L163.004 99.46H162.114L163.529 103ZM167.244 102.195C167.119 102.365 166.954 102.49 166.709 102.49C166.419 102.49 166.204 102.305 166.144 102.02H167.884V101.785C167.884 101.01 167.444 100.51 166.744 100.51C165.994 100.51 165.394 101.01 165.394 101.785C165.394 102.56 165.994 103.06 166.744 103.06C167.134 103.06 167.529 102.885 167.769 102.58L167.244 102.195ZM166.144 101.51C166.164 101.275 166.344 101.05 166.674 101.05C166.944 101.05 167.139 101.26 167.134 101.51H166.144ZM168.29 103H169.04V101.79C169.04 101.475 169.1 101.17 169.49 101.17C169.875 101.17 169.88 101.53 169.88 101.81V103H170.63V101.66C170.63 101.01 170.49 100.51 169.73 100.51C169.365 100.51 169.12 100.71 169.02 100.9H169.01V100.57H168.29V103Z" fill="#2B2B39"/>
<path d="M193.741 99.74C193.441 99.475 193.056 99.37 192.656 99.37C191.961 99.37 191.306 99.765 191.306 100.52C191.306 101.7 192.966 101.35 192.966 102C192.966 102.25 192.681 102.37 192.426 102.37C192.166 102.37 191.906 102.245 191.746 102.035L191.191 102.645C191.526 102.955 191.926 103.09 192.381 103.09C193.111 103.09 193.746 102.715 193.746 101.925C193.746 100.685 192.116 101.1 192.116 100.455C192.116 100.19 192.421 100.09 192.641 100.09C192.831 100.09 193.081 100.165 193.206 100.325L193.741 99.74ZM195.707 103H196.397V101.765C196.397 100.955 196.162 100.51 195.287 100.51C194.892 100.51 194.492 100.64 194.217 100.9L194.617 101.31C194.777 101.13 194.982 101.02 195.227 101.02C195.487 101.02 195.707 101.19 195.707 101.455C195.082 101.455 194.062 101.47 194.062 102.31C194.062 102.8 194.472 103.06 194.927 103.06C195.232 103.06 195.532 102.955 195.697 102.695H195.707V103ZM195.707 101.935V102.095C195.707 102.395 195.432 102.55 195.137 102.55C194.972 102.55 194.782 102.465 194.782 102.285C194.782 101.955 195.292 101.935 195.522 101.935H195.707ZM196.818 103H197.568V101.79C197.568 101.475 197.628 101.17 198.018 101.17C198.363 101.17 198.353 101.535 198.353 101.715V103H199.103V101.715C199.103 101.415 199.213 101.17 199.558 101.17C199.803 101.17 199.888 101.36 199.888 101.585V103H200.638V101.565C200.638 100.975 200.438 100.51 199.778 100.51C199.418 100.51 199.183 100.635 199.008 100.945C198.878 100.65 198.598 100.51 198.258 100.51C197.893 100.51 197.648 100.71 197.548 100.9H197.538V100.57H196.818V103Z" fill="#2B2B39"/>
<rect x="15" y="15" width="24" height="24" rx="12" fill="#F7D7E1"/>
<path d="M30.9999 26.3335C31.9933 26.3335 32.9133 26.6468 33.6666 27.1735V24.3335C33.6666 23.5935 33.0733 23.0002 32.3333 23.0002H29.6666V21.6668C29.6666 20.9268 29.0733 20.3335 28.3333 20.3335H25.6666C24.9266 20.3335 24.3333 20.9268 24.3333 21.6668V23.0002H21.6666C20.9266 23.0002 20.3399 23.5935 20.3399 24.3335L20.3333 31.6668C20.3333 32.4068 20.9266 33.0002 21.6666 33.0002H26.7866C26.4483 32.2892 26.2956 31.5041 26.3427 30.7182C26.3897 29.9322 26.635 29.171 27.0556 28.5055C27.4763 27.8399 28.0586 27.2917 28.7483 26.9119C29.438 26.5321 30.2126 26.3331 30.9999 26.3335ZM25.6666 21.6668H28.3333V23.0002H25.6666V21.6668Z" fill="#D53669"/>
<path d="M31.0001 27.6665C29.1601 27.6665 27.6667 29.1598 27.6667 30.9998C27.6667 32.8398 29.1601 34.3332 31.0001 34.3332C32.8401 34.3332 34.3334 32.8398 34.3334 30.9998C34.3334 29.1598 32.8401 27.6665 31.0001 27.6665ZM32.1001 32.5665L30.6667 31.1332V28.9998H31.3334V30.8598L32.5667 32.0932L32.1001 32.5665Z" fill="#D53669"/>
<path d="M54.8543 24.78H50.4223V27.084H52.4543V28.924C51.9903 29.18 51.1903 29.484 50.1023 29.484C47.9743 29.484 46.5823 27.948 46.5823 25.836C46.5823 23.724 47.9743 22.188 50.1023 22.188C51.3663 22.188 52.1823 22.556 52.8543 23.26L54.6143 21.34C53.4783 20.284 51.8943 19.884 50.1023 19.884C46.5663 19.884 43.9903 22.204 43.9903 25.836C43.9903 29.468 46.5663 31.788 50.1023 31.788C51.7663 31.788 53.3823 31.468 54.8543 30.7V24.78ZM62.2674 28.924C61.8674 29.468 61.3394 29.868 60.5554 29.868C59.6274 29.868 58.9394 29.276 58.7474 28.364H64.3154V27.612C64.3154 25.132 62.9074 23.532 60.6674 23.532C58.2674 23.532 56.3474 25.132 56.3474 27.612C56.3474 30.092 58.2674 31.692 60.6674 31.692C61.9154 31.692 63.1794 31.132 63.9474 30.156L62.2674 28.924ZM58.7474 26.732C58.8114 25.98 59.3874 25.26 60.4434 25.26C61.3074 25.26 61.9314 25.932 61.9154 26.732H58.7474ZM58.7314 22.476H60.8434L63.6114 20.172H60.3474L58.7314 22.476ZM65.6149 31.5H68.0149V28.252C68.0149 26.7 68.2389 25.644 70.0629 25.644C70.4149 25.644 70.7509 25.708 71.0869 25.804V23.612C70.8629 23.548 70.5589 23.532 70.2869 23.532C69.2309 23.532 68.5589 24.028 68.0469 24.972H68.0149V23.724H65.6149V31.5ZM77.3693 28.924C76.9693 29.468 76.4413 29.868 75.6573 29.868C74.7293 29.868 74.0413 29.276 73.8493 28.364H79.4173V27.612C79.4173 25.132 78.0093 23.532 75.7693 23.532C73.3693 23.532 71.4493 25.132 71.4493 27.612C71.4493 30.092 73.3693 31.692 75.7693 31.692C77.0173 31.692 78.2813 31.132 79.0493 30.156L77.3693 28.924ZM73.8493 26.732C73.9133 25.98 74.4893 25.26 75.5453 25.26C76.4093 25.26 77.0333 25.932 77.0173 26.732H73.8493ZM80.4128 31.5H87.3248V29.58H83.0048L87.2288 26.028V23.724H80.5088V25.644H84.4448L80.4128 29.1V31.5ZM95.5311 31.5H98.0751L101.147 23.724H98.7311L96.9071 29.004H96.8751L94.9071 23.724H92.3151L95.5311 31.5ZM101.574 27.612C101.574 30.092 103.494 31.692 105.894 31.692C108.294 31.692 110.214 30.092 110.214 27.612C110.214 25.132 108.294 23.532 105.894 23.532C103.494 23.532 101.574 25.132 101.574 27.612ZM103.974 27.612C103.974 26.444 104.694 25.644 105.894 25.644C107.094 25.644 107.814 26.444 107.814 27.612C107.814 28.78 107.094 29.58 105.894 29.58C104.694 29.58 103.974 28.78 103.974 27.612ZM117.339 24.556C116.619 23.788 115.483 23.532 114.459 23.532C112.827 23.532 111.195 24.332 111.195 26.156C111.195 29.116 115.243 28.06 115.243 29.308C115.243 29.724 114.699 29.868 114.155 29.868C113.435 29.868 112.907 29.564 112.459 29.02L111.003 30.636C111.771 31.42 112.971 31.692 114.059 31.692C115.723 31.692 117.643 31.116 117.643 29.132C117.643 26.172 113.595 27.148 113.595 25.996C113.595 25.532 114.075 25.356 114.475 25.356C115.051 25.356 115.515 25.58 115.867 26.012L117.339 24.556ZM132.92 21.548C131.96 20.316 130.36 19.884 129.096 19.884C125.56 19.884 122.984 22.204 122.984 25.836C122.984 29.468 125.56 31.788 129.096 31.788C130.648 31.788 132.248 31.164 133.192 29.82L131.112 28.268C130.6 29.036 129.784 29.484 128.776 29.484C126.968 29.484 125.576 27.948 125.576 25.836C125.576 23.724 126.968 22.188 128.856 22.188C129.784 22.188 130.504 22.524 131 23.116L132.92 21.548ZM134.385 31.5H136.881V26.972H138.113L140.481 31.5H143.473L140.593 26.716C142.193 26.428 143.041 25.196 143.041 23.612C143.041 20.972 141.089 20.172 138.769 20.172H134.385V31.5ZM136.881 22.284H138.513C139.425 22.284 140.449 22.46 140.449 23.596C140.449 24.828 139.265 24.86 138.353 24.86H136.881V22.284ZM143.432 31.5H146.184L147.128 29.1H151.528L152.504 31.5H155.32L150.392 20.172H148.328L143.432 31.5ZM150.68 26.988H147.912L149.288 23.468L150.68 26.988ZM161.867 24.556C161.147 23.788 160.011 23.532 158.987 23.532C157.355 23.532 155.723 24.332 155.723 26.156C155.723 29.116 159.771 28.06 159.771 29.308C159.771 29.724 159.227 29.868 158.683 29.868C157.963 29.868 157.435 29.564 156.987 29.02L155.531 30.636C156.299 31.42 157.499 31.692 158.587 31.692C160.251 31.692 162.171 31.116 162.171 29.132C162.171 26.172 158.123 27.148 158.123 25.996C158.123 25.532 158.603 25.356 159.003 25.356C159.579 25.356 160.043 25.58 160.395 26.012L161.867 24.556Z" fill="#0A3CB1"/>
</g>
<defs>
<filter id="filter0_d_119_1448" x="0" y="0" width="242" height="128" filterUnits="userSpaceOnUse" color-interpolation-filters="sRGB">
<feFlood flood-opacity="0" result="BackgroundImageFix"/>
<feColorMatrix in="SourceAlpha" type="matrix" values="0 0 0 0 0 0 0 0 0 0 0 0 0 0 0 0 0 0 127 0" result="hardAlpha"/>
<feOffset dy="4"/>
<feGaussianBlur stdDeviation="3"/>
<feComposite in2="hardAlpha" operator="out"/>
<feColorMatrix type="matrix" values="0 0 0 0 0 0 0 0 0 0 0 0 0 0 0 0 0 0 0.1 0"/>
<feBlend mode="normal" in2="BackgroundImageFix" result="effect1_dropShadow_119_1448"/>
<feBlend mode="normal" in="SourceGraphic" in2="effect1_dropShadow_119_1448" result="shape"/>
</filter>
</defs>
</svg>
