<svg width="230" height="116" viewBox="0 0 230 116" fill="none" xmlns="http://www.w3.org/2000/svg">
<rect width="230" height="116" rx="12" fill="white" fill-opacity="0.9"/>
<line x1="19" y1="57.5" x2="219" y2="57.5" stroke="#E2E8F0"/>
<line x1="19" y1="75.5" x2="219" y2="75.5" stroke="#E2E8F0"/>
<line x1="19" y1="93.5" x2="219" y2="93.5" stroke="#E2E8F0"/>
<rect x="32" y="68" width="16" height="25" rx="4" fill="#E5D64B"/>
<rect x="62" y="55" width="16" height="38" rx="4" fill="#E5D64B"/>
<rect x="92" y="62" width="16" height="31" rx="4" fill="#D53669"/>
<rect x="122" y="46" width="16" height="47" rx="4" fill="#E5D64B"/>
<rect x="152" y="87" width="16" height="6" rx="3" fill="#D53669"/>
<rect x="182" y="84" width="16" height="9" rx="4" fill="#D53669"/>
<path d="M36.7261 101H38.9511V100.28H37.5061V97.46H36.7261V101ZM41.5767 98.57H40.8267V99.78C40.8267 100.095 40.7667 100.4 40.3767 100.4C39.9917 100.4 39.9867 100.04 39.9867 99.76V98.57H39.2367V99.91C39.2367 100.56 39.3767 101.06 40.1367 101.06C40.5017 101.06 40.7467 100.86 40.8467 100.67H40.8567V101H41.5767V98.57ZM42.0578 101H42.8078V99.79C42.8078 99.475 42.8678 99.17 43.2578 99.17C43.6428 99.17 43.6478 99.53 43.6478 99.81V101H44.3978V99.66C44.3978 99.01 44.2578 98.51 43.4978 98.51C43.1328 98.51 42.8878 98.71 42.7878 98.9H42.7778V98.57H42.0578V101Z" fill="#2B2B39"/>
<path d="M65.6883 101H66.4683V98.285H66.4783L67.3733 101H67.9683L68.8983 98.285H68.9083V101H69.6883V97.46H68.5133L67.6933 99.77H67.6833L66.8683 97.46H65.6883V101ZM71.79 101H72.48V99.765C72.48 98.955 72.245 98.51 71.37 98.51C70.975 98.51 70.575 98.64 70.3 98.9L70.7 99.31C70.86 99.13 71.065 99.02 71.31 99.02C71.57 99.02 71.79 99.19 71.79 99.455C71.165 99.455 70.145 99.47 70.145 100.31C70.145 100.8 70.555 101.06 71.01 101.06C71.315 101.06 71.615 100.955 71.78 100.695H71.79V101ZM71.79 99.935V100.095C71.79 100.395 71.515 100.55 71.22 100.55C71.055 100.55 70.865 100.465 70.865 100.285C70.865 99.955 71.375 99.935 71.605 99.935H71.79ZM72.9005 101H73.6505V99.985C73.6505 99.5 73.7205 99.17 74.2905 99.17C74.4005 99.17 74.5055 99.19 74.6105 99.22V98.535C74.5405 98.515 74.4455 98.51 74.3605 98.51C74.0305 98.51 73.8205 98.665 73.6605 98.96H73.6505V98.57H72.9005V101Z" fill="#2B2B39"/>
<path d="M95.5955 101H96.3755V98.285H96.3855L97.2805 101H97.8755L98.8055 98.285H98.8155V101H99.5955V97.46H98.4205L97.6005 99.77H97.5905L96.7755 97.46H95.5955V101ZM101.947 100.195C101.822 100.365 101.657 100.49 101.412 100.49C101.122 100.49 100.907 100.305 100.847 100.02H102.587V99.785C102.587 99.01 102.147 98.51 101.447 98.51C100.697 98.51 100.097 99.01 100.097 99.785C100.097 100.56 100.697 101.06 101.447 101.06C101.837 101.06 102.232 100.885 102.472 100.58L101.947 100.195ZM100.847 99.51C100.867 99.275 101.047 99.05 101.377 99.05C101.647 99.05 101.842 99.26 101.837 99.51H100.847ZM102.993 101H103.743V99.985C103.743 99.5 103.813 99.17 104.383 99.17C104.493 99.17 104.598 99.19 104.703 99.22V98.535C104.633 98.515 104.538 98.51 104.453 98.51C104.123 98.51 103.913 98.665 103.753 98.96H103.743V98.57H102.993V101Z" fill="#2B2B39"/>
<path d="M128.619 97.46H127.839V99.73C127.839 99.995 127.834 100.4 127.469 100.4C127.299 100.4 127.139 100.26 127.119 100.09L126.404 100.265C126.519 100.83 126.929 101.09 127.489 101.09C128.449 101.09 128.619 100.47 128.619 99.815V97.46ZM130.919 100.195C130.794 100.365 130.629 100.49 130.384 100.49C130.094 100.49 129.879 100.305 129.819 100.02H131.559V99.785C131.559 99.01 131.119 98.51 130.419 98.51C129.669 98.51 129.069 99.01 129.069 99.785C129.069 100.56 129.669 101.06 130.419 101.06C130.809 101.06 131.204 100.885 131.444 100.58L130.919 100.195ZM129.819 99.51C129.839 99.275 130.019 99.05 130.349 99.05C130.619 99.05 130.814 99.26 130.809 99.51H129.819ZM134.305 98.57H133.555V99.78C133.555 100.095 133.495 100.4 133.105 100.4C132.72 100.4 132.715 100.04 132.715 99.76V98.57H131.965V99.91C131.965 100.56 132.105 101.06 132.865 101.06C133.23 101.06 133.475 100.86 133.575 100.67H133.585V101H134.305V98.57Z" fill="#2B2B39"/>
<path d="M157.529 101H158.154L159.614 97.46H158.779L157.889 99.78H157.879L157.004 97.46H156.114L157.529 101ZM161.244 100.195C161.119 100.365 160.954 100.49 160.709 100.49C160.419 100.49 160.204 100.305 160.144 100.02H161.884V99.785C161.884 99.01 161.444 98.51 160.744 98.51C159.994 98.51 159.394 99.01 159.394 99.785C159.394 100.56 159.994 101.06 160.744 101.06C161.134 101.06 161.529 100.885 161.769 100.58L161.244 100.195ZM160.144 99.51C160.164 99.275 160.344 99.05 160.674 99.05C160.944 99.05 161.139 99.26 161.134 99.51H160.144ZM162.29 101H163.04V99.79C163.04 99.475 163.1 99.17 163.49 99.17C163.875 99.17 163.88 99.53 163.88 99.81V101H164.63V99.66C164.63 99.01 164.49 98.51 163.73 98.51C163.365 98.51 163.12 98.71 163.02 98.9H163.01V98.57H162.29V101Z" fill="#2B2B39"/>
<path d="M187.741 97.74C187.441 97.475 187.056 97.37 186.656 97.37C185.961 97.37 185.306 97.765 185.306 98.52C185.306 99.7 186.966 99.35 186.966 100C186.966 100.25 186.681 100.37 186.426 100.37C186.166 100.37 185.906 100.245 185.746 100.035L185.191 100.645C185.526 100.955 185.926 101.09 186.381 101.09C187.111 101.09 187.746 100.715 187.746 99.925C187.746 98.685 186.116 99.1 186.116 98.455C186.116 98.19 186.421 98.09 186.641 98.09C186.831 98.09 187.081 98.165 187.206 98.325L187.741 97.74ZM189.707 101H190.397V99.765C190.397 98.955 190.162 98.51 189.287 98.51C188.892 98.51 188.492 98.64 188.217 98.9L188.617 99.31C188.777 99.13 188.982 99.02 189.227 99.02C189.487 99.02 189.707 99.19 189.707 99.455C189.082 99.455 188.062 99.47 188.062 100.31C188.062 100.8 188.472 101.06 188.927 101.06C189.232 101.06 189.532 100.955 189.697 100.695H189.707V101ZM189.707 99.935V100.095C189.707 100.395 189.432 100.55 189.137 100.55C188.972 100.55 188.782 100.465 188.782 100.285C188.782 99.955 189.292 99.935 189.522 99.935H189.707ZM190.818 101H191.568V99.79C191.568 99.475 191.628 99.17 192.018 99.17C192.363 99.17 192.353 99.535 192.353 99.715V101H193.103V99.715C193.103 99.415 193.213 99.17 193.558 99.17C193.803 99.17 193.888 99.36 193.888 99.585V101H194.638V99.565C194.638 98.975 194.438 98.51 193.778 98.51C193.418 98.51 193.183 98.635 193.008 98.945C192.878 98.65 192.598 98.51 192.258 98.51C191.893 98.51 191.648 98.71 191.548 98.9H191.538V98.57H190.818V101Z" fill="#2B2B39"/>
<rect x="9" y="13" width="24" height="24" rx="12" fill="#F7D7E1"/>
<path d="M24.9999 24.3335C25.9933 24.3335 26.9133 24.6468 27.6666 25.1735V22.3335C27.6666 21.5935 27.0733 21.0002 26.3333 21.0002H23.6666V19.6668C23.6666 18.9268 23.0733 18.3335 22.3333 18.3335H19.6666C18.9266 18.3335 18.3333 18.9268 18.3333 19.6668V21.0002H15.6666C14.9266 21.0002 14.3399 21.5935 14.3399 22.3335L14.3333 29.6668C14.3333 30.4068 14.9266 31.0002 15.6666 31.0002H20.7866C20.4483 30.2892 20.2956 29.5041 20.3427 28.7182C20.3897 27.9322 20.635 27.171 21.0556 26.5055C21.4763 25.8399 22.0586 25.2917 22.7483 24.9119C23.438 24.5321 24.2126 24.3331 24.9999 24.3335ZM19.6666 19.6668H22.3333V21.0002H19.6666V19.6668Z" fill="#D53669"/>
<path d="M25.0001 25.6665C23.1601 25.6665 21.6667 27.1598 21.6667 28.9998C21.6667 30.8398 23.1601 32.3332 25.0001 32.3332C26.8401 32.3332 28.3334 30.8398 28.3334 28.9998C28.3334 27.1598 26.8401 25.6665 25.0001 25.6665ZM26.1001 30.5665L24.6667 29.1332V26.9998H25.3334V28.8598L26.5667 30.0932L26.1001 30.5665Z" fill="#D53669"/>
<path d="M40.4749 29.5H42.9709V20.38H46.2029V18.172H37.2429V20.38H40.4749V29.5ZM45.5377 29.5H47.9377V26.252C47.9377 24.7 48.1617 23.644 49.9857 23.644C50.3377 23.644 50.6737 23.708 51.0097 23.804V21.612C50.7857 21.548 50.4817 21.532 50.2097 21.532C49.1537 21.532 48.4817 22.028 47.9697 22.972H47.9377V21.724H45.5377V29.5ZM56.7733 29.5H58.9813V25.548C58.9813 22.956 58.2293 21.532 55.4293 21.532C54.1653 21.532 52.8853 21.948 52.0053 22.78L53.2853 24.092C53.7973 23.516 54.4533 23.164 55.2373 23.164C56.0693 23.164 56.7733 23.708 56.7733 24.556C54.7733 24.556 51.5093 24.604 51.5093 27.292C51.5093 28.86 52.8213 29.692 54.2773 29.692C55.2533 29.692 56.2133 29.356 56.7413 28.524H56.7733V29.5ZM56.7733 26.092V26.604C56.7733 27.564 55.8933 28.06 54.9493 28.06C54.4213 28.06 53.8133 27.788 53.8133 27.212C53.8133 26.156 55.4453 26.092 56.1813 26.092H56.7733ZM62.7271 29.5H65.2711L68.3431 21.724H65.9271L64.1031 27.004H64.0711L62.1031 21.724H59.5111L62.7271 29.5ZM73.9377 29.5H76.1457V25.548C76.1457 22.956 75.3937 21.532 72.5937 21.532C71.3297 21.532 70.0497 21.948 69.1697 22.78L70.4497 24.092C70.9617 23.516 71.6177 23.164 72.4017 23.164C73.2337 23.164 73.9377 23.708 73.9377 24.556C71.9377 24.556 68.6737 24.604 68.6737 27.292C68.6737 28.86 69.9857 29.692 71.4417 29.692C72.4177 29.692 73.3777 29.356 73.9057 28.524H73.9377V29.5ZM73.9377 26.092V26.604C73.9377 27.564 73.0577 28.06 72.1137 28.06C71.5857 28.06 70.9777 27.788 70.9777 27.212C70.9777 26.156 72.6097 26.092 73.3457 26.092H73.9377ZM77.5234 29.5H79.9234V21.724H77.5234V29.5ZM77.3314 19.276C77.3314 20.044 77.9554 20.668 78.7234 20.668C79.4914 20.668 80.1154 20.044 80.1154 19.276C80.1154 18.508 79.4914 17.884 78.7234 17.884C77.9554 17.884 77.3314 18.508 77.3314 19.276ZM81.5197 29.5H83.9197V17.404H81.5197V29.5ZM85.5159 29.5H87.9159V17.404H85.5159V29.5ZM95.1602 26.924C94.7602 27.468 94.2322 27.868 93.4482 27.868C92.5202 27.868 91.8322 27.276 91.6402 26.364H97.2082V25.612C97.2082 23.132 95.8002 21.532 93.5602 21.532C91.1602 21.532 89.2402 23.132 89.2402 25.612C89.2402 28.092 91.1602 29.692 93.5602 29.692C94.8082 29.692 96.0722 29.132 96.8402 28.156L95.1602 26.924ZM91.6402 24.732C91.7042 23.98 92.2802 23.26 93.3362 23.26C94.2002 23.26 94.8242 23.932 94.8082 24.732H91.6402ZM98.2037 29.5H105.116V27.58H100.796L105.02 24.028V21.724H98.2997V23.644H102.236L98.2037 27.1V29.5ZM115.802 29.5H118.01V25.548C118.01 22.956 117.258 21.532 114.458 21.532C113.194 21.532 111.914 21.948 111.034 22.78L112.314 24.092C112.826 23.516 113.482 23.164 114.266 23.164C115.098 23.164 115.802 23.708 115.802 24.556C113.802 24.556 110.538 24.604 110.538 27.292C110.538 28.86 111.85 29.692 113.306 29.692C114.282 29.692 115.242 29.356 115.77 28.524H115.802V29.5ZM115.802 26.092V26.604C115.802 27.564 114.922 28.06 113.978 28.06C113.45 28.06 112.842 27.788 112.842 27.212C112.842 26.156 114.474 26.092 115.21 26.092H115.802ZM114.394 18.172H111.13L113.898 20.476H116.01L114.394 18.172ZM126.33 29.5H128.874L131.946 21.724H129.53L127.706 27.004H127.674L125.706 21.724H123.114L126.33 29.5ZM132.373 25.612C132.373 28.092 134.293 29.692 136.693 29.692C139.093 29.692 141.013 28.092 141.013 25.612C141.013 23.132 139.093 21.532 136.693 21.532C134.293 21.532 132.373 23.132 132.373 25.612ZM134.773 25.612C134.773 24.444 135.493 23.644 136.693 23.644C137.893 23.644 138.613 24.444 138.613 25.612C138.613 26.78 137.893 27.58 136.693 27.58C135.493 27.58 134.773 26.78 134.773 25.612ZM147.562 21.724H145.45V19.42H143.05V21.724H141.514V23.644H143.05V27.34C143.05 29.036 144.282 29.692 145.882 29.692C146.442 29.692 147.034 29.644 147.562 29.452V27.452C147.354 27.644 146.842 27.676 146.586 27.676C145.546 27.676 145.45 27.068 145.45 26.236V23.644H147.562V21.724ZM148.622 29.5H151.022V26.252C151.022 24.7 151.246 23.644 153.07 23.644C153.422 23.644 153.758 23.708 154.094 23.804V21.612C153.87 21.548 153.566 21.532 153.294 21.532C152.238 21.532 151.566 22.028 151.054 22.972H151.022V21.724H148.622V29.5ZM160.376 26.924C159.976 27.468 159.448 27.868 158.664 27.868C157.736 27.868 157.048 27.276 156.856 26.364H162.424V25.612C162.424 23.132 161.016 21.532 158.776 21.532C156.376 21.532 154.456 23.132 154.456 25.612C154.456 28.092 156.376 29.692 158.776 29.692C160.024 29.692 161.288 29.132 162.056 28.156L160.376 26.924ZM156.856 24.732C156.92 23.98 157.496 23.26 158.552 23.26C159.416 23.26 160.04 23.932 160.024 24.732H156.856ZM168.298 29.5H170.698V26.252C170.698 24.7 170.922 23.644 172.746 23.644C173.098 23.644 173.434 23.708 173.77 23.804V21.612C173.546 21.548 173.242 21.532 172.97 21.532C171.914 21.532 171.242 22.028 170.73 22.972H170.698V21.724H168.298V29.5ZM182.654 21.724H180.19L178.478 26.86H178.446L176.446 21.724H173.854L177.262 29.564L177.086 30.012C176.75 30.86 176.574 31.324 175.486 31.324C175.086 31.324 174.734 31.244 174.366 31.084L174.046 33.052C174.622 33.244 175.23 33.34 175.838 33.34C178.126 33.34 178.494 32.412 179.134 30.764L182.654 21.724ZM188.681 21.724H186.569V19.42H184.169V21.724H182.633V23.644H184.169V27.34C184.169 29.036 185.401 29.692 187.001 29.692C187.561 29.692 188.153 29.644 188.681 29.452V27.452C188.473 27.644 187.961 27.676 187.705 27.676C186.665 27.676 186.569 27.068 186.569 26.236V23.644H188.681V21.724ZM189.74 17.404V29.5H192.14V25.628C192.14 24.62 192.332 23.644 193.58 23.644C194.812 23.644 194.828 24.796 194.828 25.692V29.5H197.228V25.212C197.228 23.132 196.78 21.532 194.348 21.532C193.18 21.532 192.396 22.172 192.172 22.78H192.14V17.404H189.74ZM198.768 29.5H201.168V25.628C201.168 24.62 201.36 23.644 202.608 23.644C203.712 23.644 203.68 24.812 203.68 25.388V29.5H206.08V25.388C206.08 24.428 206.432 23.644 207.536 23.644C208.32 23.644 208.592 24.252 208.592 24.972V29.5H210.992V24.908C210.992 23.02 210.352 21.532 208.24 21.532C207.088 21.532 206.336 21.932 205.776 22.924C205.36 21.98 204.464 21.532 203.376 21.532C202.208 21.532 201.424 22.172 201.104 22.78H201.072V21.724H198.768V29.5ZM218.21 26.924C217.81 27.468 217.282 27.868 216.498 27.868C215.57 27.868 214.882 27.276 214.69 26.364H220.258V25.612C220.258 23.132 218.85 21.532 216.61 21.532C214.21 21.532 212.29 23.132 212.29 25.612C212.29 28.092 214.21 29.692 216.61 29.692C217.858 29.692 219.122 29.132 219.89 28.156L218.21 26.924ZM214.69 24.732C214.754 23.98 215.33 23.26 216.386 23.26C217.25 23.26 217.874 23.932 217.858 24.732H214.69Z" fill="#0A3CB1"/>
</svg>
