<svg width="291" height="155" viewBox="0 0 291 155" fill="none" xmlns="http://www.w3.org/2000/svg">
<rect width="291" height="155" rx="12" fill="#102962" fill-opacity="0.9"/>
<g clip-path="url(#clip0_119_1369)">
<rect x="11" y="17" width="24" height="24" rx="12" fill="white" fill-opacity="0.1"/>
<path d="M28.3334 25.0002H25.6667V23.6668C25.6667 22.9268 25.0734 22.3335 24.3334 22.3335H21.6667C20.9267 22.3335 20.3334 22.9268 20.3334 23.6668V25.0002H17.6667C16.9267 25.0002 16.34 25.5935 16.34 26.3335L16.3334 33.6668C16.3334 34.4068 16.9267 35.0002 17.6667 35.0002H28.3334C29.0734 35.0002 29.6667 34.4068 29.6667 33.6668V26.3335C29.6667 25.5935 29.0734 25.0002 28.3334 25.0002ZM24.3334 25.0002H21.6667V23.6668H24.3334V25.0002Z" fill="white"/>
<path d="M46 27.5H39V24C39 22.0575 37.4425 20.5 35.5 20.5H28.5C26.5575 20.5 25 22.0575 25 24V27.5H18C16.0575 27.5 14.5175 29.0575 14.5175 31L14.5 50.25C14.5 52.1925 16.0575 53.75 18 53.75H46C47.9425 53.75 49.5 52.1925 49.5 50.25V31C49.5 29.0575 47.9425 27.5 46 27.5ZM35.5 27.5H28.5V24H35.5V27.5Z" fill="#475569"/>
</g>
<path d="M49.9588 23.548C48.9988 22.316 47.3988 21.884 46.1348 21.884C42.5988 21.884 40.0228 24.204 40.0228 27.836C40.0228 31.468 42.5988 33.788 46.1348 33.788C47.6868 33.788 49.2868 33.164 50.2308 31.82L48.1508 30.268C47.6388 31.036 46.8228 31.484 45.8148 31.484C44.0068 31.484 42.6148 29.948 42.6148 27.836C42.6148 25.724 44.0068 24.188 45.8948 24.188C46.8228 24.188 47.5428 24.524 48.0388 25.116L49.9588 23.548ZM51.1199 21.404V33.5H53.5199V29.628C53.5199 28.62 53.7119 27.644 54.9599 27.644C56.1919 27.644 56.2079 28.796 56.2079 29.692V33.5H58.6079V29.212C58.6079 27.132 58.1599 25.532 55.7279 25.532C54.5599 25.532 53.7759 26.172 53.5519 26.78H53.5199V21.404H51.1199ZM59.8594 29.612C59.8594 32.092 61.7794 33.692 64.1794 33.692C66.5794 33.692 68.4994 32.092 68.4994 29.612C68.4994 27.132 66.5794 25.532 64.1794 25.532C61.7794 25.532 59.8594 27.132 59.8594 29.612ZM62.2594 29.612C62.2594 28.444 62.9794 27.644 64.1794 27.644C65.3794 27.644 66.0994 28.444 66.0994 29.612C66.0994 30.78 65.3794 31.58 64.1794 31.58C62.9794 31.58 62.2594 30.78 62.2594 29.612ZM69.785 33.5H72.185V25.724H69.785V33.5ZM69.593 23.276C69.593 24.044 70.217 24.668 70.985 24.668C71.753 24.668 72.377 24.044 72.377 23.276C72.377 22.508 71.753 21.884 70.985 21.884C70.217 21.884 69.593 22.508 69.593 23.276ZM79.6213 26.556C78.9013 25.788 77.7653 25.532 76.7413 25.532C75.1093 25.532 73.4773 26.332 73.4773 28.156C73.4773 31.116 77.5253 30.06 77.5253 31.308C77.5253 31.724 76.9813 31.868 76.4373 31.868C75.7173 31.868 75.1893 31.564 74.7413 31.02L73.2853 32.636C74.0533 33.42 75.2533 33.692 76.3413 33.692C78.0053 33.692 79.9253 33.116 79.9253 31.132C79.9253 28.172 75.8773 29.148 75.8773 27.996C75.8773 27.532 76.3573 27.356 76.7573 27.356C77.3333 27.356 77.7973 27.58 78.1493 28.012L79.6213 26.556ZM81.0275 33.5H83.4275V25.724H81.0275V33.5ZM80.8355 23.276C80.8355 24.044 81.4595 24.668 82.2275 24.668C82.9955 24.668 83.6195 24.044 83.6195 23.276C83.6195 22.508 82.9955 21.884 82.2275 21.884C81.4595 21.884 80.8355 22.508 80.8355 23.276ZM90.8638 26.556C90.1438 25.788 89.0078 25.532 87.9838 25.532C86.3518 25.532 84.7198 26.332 84.7198 28.156C84.7198 31.116 88.7678 30.06 88.7678 31.308C88.7678 31.724 88.2238 31.868 87.6798 31.868C86.9598 31.868 86.4318 31.564 85.9838 31.02L84.5278 32.636C85.2958 33.42 86.4958 33.692 87.5838 33.692C89.2478 33.692 91.1678 33.116 91.1678 31.132C91.1678 28.172 87.1198 29.148 87.1198 27.996C87.1198 27.532 87.5998 27.356 87.9998 27.356C88.5758 27.356 89.0398 27.58 89.3918 28.012L90.8638 26.556ZM98.11 26.556C97.39 25.788 96.254 25.532 95.23 25.532C93.598 25.532 91.966 26.332 91.966 28.156C91.966 31.116 96.014 30.06 96.014 31.308C96.014 31.724 95.47 31.868 94.926 31.868C94.206 31.868 93.678 31.564 93.23 31.02L91.774 32.636C92.542 33.42 93.742 33.692 94.83 33.692C96.494 33.692 98.414 33.116 98.414 31.132C98.414 28.172 94.366 29.148 94.366 27.996C94.366 27.532 94.846 27.356 95.246 27.356C95.822 27.356 96.286 27.58 96.638 28.012L98.11 26.556ZM105.164 30.924C104.764 31.468 104.236 31.868 103.452 31.868C102.524 31.868 101.836 31.276 101.644 30.364H107.212V29.612C107.212 27.132 105.804 25.532 103.564 25.532C101.164 25.532 99.2443 27.132 99.2443 29.612C99.2443 32.092 101.164 33.692 103.564 33.692C104.812 33.692 106.076 33.132 106.844 32.156L105.164 30.924ZM101.644 28.732C101.708 27.98 102.284 27.26 103.34 27.26C104.204 27.26 104.828 27.932 104.812 28.732H101.644ZM108.208 33.5H115.12V31.58H110.8L115.024 28.028V25.724H108.304V27.644H112.24L108.208 31.1V33.5ZM123.326 33.5H125.87L128.942 25.724H126.526L124.702 31.004H124.67L122.702 25.724H120.11L123.326 33.5ZM129.369 29.612C129.369 32.092 131.289 33.692 133.689 33.692C136.089 33.692 138.009 32.092 138.009 29.612C138.009 27.132 136.089 25.532 133.689 25.532C131.289 25.532 129.369 27.132 129.369 29.612ZM131.769 29.612C131.769 28.444 132.489 27.644 133.689 27.644C134.889 27.644 135.609 28.444 135.609 29.612C135.609 30.78 134.889 31.58 133.689 31.58C132.489 31.58 131.769 30.78 131.769 29.612ZM145.134 26.556C144.414 25.788 143.278 25.532 142.254 25.532C140.622 25.532 138.99 26.332 138.99 28.156C138.99 31.116 143.038 30.06 143.038 31.308C143.038 31.724 142.494 31.868 141.95 31.868C141.23 31.868 140.702 31.564 140.254 31.02L138.798 32.636C139.566 33.42 140.766 33.692 141.854 33.692C143.518 33.692 145.438 33.116 145.438 31.132C145.438 28.172 141.39 29.148 141.39 27.996C141.39 27.532 141.87 27.356 142.27 27.356C142.846 27.356 143.31 27.58 143.662 28.012L145.134 26.556ZM151.083 33.5H153.483V29.628C153.483 28.62 153.675 27.644 154.923 27.644C156.027 27.644 155.995 28.812 155.995 29.388V33.5H158.395V29.388C158.395 28.428 158.747 27.644 159.851 27.644C160.635 27.644 160.907 28.252 160.907 28.972V33.5H163.307V28.908C163.307 27.02 162.667 25.532 160.555 25.532C159.403 25.532 158.651 25.932 158.091 26.924C157.675 25.98 156.779 25.532 155.691 25.532C154.523 25.532 153.739 26.172 153.419 26.78H153.387V25.724H151.083V33.5ZM164.877 33.5H167.277V25.724H164.877V33.5ZM164.685 23.276C164.685 24.044 165.309 24.668 166.077 24.668C166.845 24.668 167.469 24.044 167.469 23.276C167.469 22.508 166.845 21.884 166.077 21.884C165.309 21.884 164.685 22.508 164.685 23.276ZM174.713 26.556C173.993 25.788 172.857 25.532 171.833 25.532C170.201 25.532 168.569 26.332 168.569 28.156C168.569 31.116 172.617 30.06 172.617 31.308C172.617 31.724 172.073 31.868 171.529 31.868C170.809 31.868 170.281 31.564 169.833 31.02L168.377 32.636C169.145 33.42 170.345 33.692 171.433 33.692C173.097 33.692 175.017 33.116 175.017 31.132C175.017 28.172 170.969 29.148 170.969 27.996C170.969 27.532 171.449 27.356 171.849 27.356C172.425 27.356 172.889 27.58 173.241 28.012L174.713 26.556ZM181.959 26.556C181.239 25.788 180.103 25.532 179.079 25.532C177.447 25.532 175.815 26.332 175.815 28.156C175.815 31.116 179.863 30.06 179.863 31.308C179.863 31.724 179.319 31.868 178.775 31.868C178.055 31.868 177.527 31.564 177.079 31.02L175.623 32.636C176.391 33.42 177.591 33.692 178.679 33.692C180.343 33.692 182.263 33.116 182.263 31.132C182.263 28.172 178.215 29.148 178.215 27.996C178.215 27.532 178.695 27.356 179.095 27.356C179.671 27.356 180.135 27.58 180.487 28.012L181.959 26.556ZM183.366 33.5H185.766V25.724H183.366V33.5ZM183.174 23.276C183.174 24.044 183.798 24.668 184.566 24.668C185.334 24.668 185.958 24.044 185.958 23.276C185.958 22.508 185.334 21.884 184.566 21.884C183.798 21.884 183.174 22.508 183.174 23.276ZM187.042 29.612C187.042 32.092 188.962 33.692 191.362 33.692C193.762 33.692 195.682 32.092 195.682 29.612C195.682 27.132 193.762 25.532 191.362 25.532C188.962 25.532 187.042 27.132 187.042 29.612ZM189.442 29.612C189.442 28.444 190.162 27.644 191.362 27.644C192.562 27.644 193.282 28.444 193.282 29.612C193.282 30.78 192.562 31.58 191.362 31.58C190.162 31.58 189.442 30.78 189.442 29.612ZM196.935 33.5H199.335V29.628C199.335 28.62 199.527 27.644 200.775 27.644C202.007 27.644 202.023 28.796 202.023 29.692V33.5H204.423V29.212C204.423 27.132 203.975 25.532 201.543 25.532C200.375 25.532 199.591 26.172 199.271 26.78H199.239V25.724H196.935V33.5ZM211.835 26.556C211.115 25.788 209.979 25.532 208.955 25.532C207.323 25.532 205.691 26.332 205.691 28.156C205.691 31.116 209.739 30.06 209.739 31.308C209.739 31.724 209.195 31.868 208.651 31.868C207.931 31.868 207.403 31.564 206.955 31.02L205.499 32.636C206.267 33.42 207.467 33.692 208.555 33.692C210.219 33.692 212.139 33.116 212.139 31.132C212.139 28.172 208.091 29.148 208.091 27.996C208.091 27.532 208.571 27.356 208.971 27.356C209.547 27.356 210.011 27.58 210.363 28.012L211.835 26.556Z" fill="white"/>
<path d="M43.94 49.6C43.38 48.96 42.74 48.74 41.94 48.74C40.79 48.74 39.65 49.38 39.65 50.75C39.65 53.34 43.28 52.23 43.28 54.23C43.28 55.06 42.47 55.52 41.76 55.52C41.02 55.52 40.45 55.18 40.15 54.66L39.5 55.13C40.04 55.87 40.87 56.18 41.73 56.18C42.85 56.18 44.06 55.42 44.06 54.13C44.06 51.58 40.43 52.59 40.43 50.68C40.43 49.79 41.2 49.4 41.94 49.4C42.54 49.4 43 49.63 43.31 50.09L43.94 49.6ZM49.4366 53.84V53.54C49.4366 52.26 48.6166 51.21 47.1966 51.2C45.8666 51.2 44.8366 52.25 44.8366 53.66C44.8366 55.07 45.8666 56.12 47.2566 56.12C48.0266 56.12 48.7166 55.83 49.2666 55.13L48.7566 54.71C48.4966 55.13 47.9566 55.52 47.2566 55.52C46.3266 55.52 45.6166 54.78 45.5366 53.84H49.4366ZM45.5566 53.3C45.5566 52.53 46.3366 51.8 47.1966 51.8C48.1466 51.8 48.7166 52.41 48.7166 53.3H45.5566ZM48.4366 48.92H47.5266L46.5266 50.36H47.1166L48.4366 48.92ZM51.2433 48.44H50.5833V56H51.2433V48.44ZM56.9956 53.84V53.54C56.9956 52.26 56.1756 51.21 54.7556 51.2C53.4256 51.2 52.3956 52.25 52.3956 53.66C52.3956 55.07 53.4256 56.12 54.8156 56.12C55.5856 56.12 56.2756 55.83 56.8256 55.13L56.3156 54.71C56.0556 55.13 55.5156 55.52 54.8156 55.52C53.8856 55.52 53.1756 54.78 53.0956 53.84H56.9956ZM53.1156 53.3C53.1156 52.53 53.8956 51.8 54.7556 51.8C55.7056 51.8 56.2756 52.41 56.2756 53.3H53.1156ZM61.9423 52.01C61.4823 51.47 60.8623 51.21 60.2323 51.2C58.7023 51.18 57.7523 52.25 57.7523 53.66C57.7523 55.07 58.7023 56.14 60.2323 56.12C60.8623 56.11 61.4823 55.85 61.9423 55.31L61.4023 54.9C61.1823 55.24 60.7523 55.52 60.2323 55.52C59.1423 55.54 58.4723 54.73 58.4723 53.66C58.4723 52.59 59.1423 51.78 60.2323 51.8C60.7523 51.8 61.1823 52.08 61.4023 52.42L61.9423 52.01ZM65.0365 51.32H63.6865V50H63.0265V51.32H62.0365V51.92H63.0265V54.87C63.0265 55.9 63.6865 56.12 64.1865 56.12C64.5165 56.12 64.8365 56.06 65.0765 55.95L65.0465 55.34C64.8465 55.45 64.5965 55.52 64.3665 55.52C63.9565 55.52 63.6865 55.38 63.6865 54.68V51.92H65.0365V51.32ZM66.5468 51.32H65.8868V56H66.5468V51.32ZM66.6968 49.52C66.6968 49.24 66.4568 49.04 66.2168 49.04C65.9768 49.04 65.7368 49.24 65.7368 49.52C65.7368 49.8 65.9768 50 66.2168 50C66.4568 50 66.6968 49.8 66.6968 49.52ZM72.6691 53.66C72.6691 52.25 71.6391 51.2 70.1791 51.2C68.7291 51.2 67.6991 52.25 67.6991 53.66C67.6991 55.07 68.7291 56.12 70.1791 56.12C71.6391 56.12 72.6691 55.07 72.6691 53.66ZM71.9491 53.66C71.9491 54.71 71.2691 55.52 70.1791 55.52C69.0991 55.52 68.4191 54.71 68.4191 53.66C68.4191 52.61 69.0991 51.8 70.1791 51.8C71.2691 51.8 71.9491 52.61 71.9491 53.66ZM73.6169 51.32C73.6369 51.66 73.6669 52.1 73.6669 52.35V56H74.3269V53.6C74.3269 51.89 75.6069 51.8 75.7469 51.8C76.7269 51.8 77.0169 52.37 77.0169 53.41V56H77.6769V53.03C77.6769 51.87 77.1069 51.2 75.9169 51.2C75.2969 51.2 74.6369 51.56 74.3469 52.07H74.3269C74.3269 51.82 74.3269 51.57 74.2969 51.32H73.6169ZM78.9735 51.32C78.9935 51.66 79.0235 52.1 79.0235 52.35V56H79.6835V53.6C79.6835 51.89 80.9635 51.8 81.1035 51.8C82.0835 51.8 82.3735 52.37 82.3735 53.41V56H83.0335V53.03C83.0335 51.87 82.4635 51.2 81.2735 51.2C80.6535 51.2 79.9935 51.56 79.7035 52.07H79.6835C79.6835 51.82 79.6835 51.57 79.6535 51.32H78.9735ZM88.7402 53.84V53.54C88.7402 52.26 87.9202 51.21 86.5002 51.2C85.1702 51.2 84.1402 52.25 84.1402 53.66C84.1402 55.07 85.1702 56.12 86.5602 56.12C87.3302 56.12 88.0202 55.83 88.5702 55.13L88.0602 54.71C87.8002 55.13 87.2602 55.52 86.5602 55.52C85.6302 55.52 84.9202 54.78 84.8402 53.84H88.7402ZM84.8602 53.3C84.8602 52.53 85.6402 51.8 86.5002 51.8C87.4502 51.8 88.0202 52.41 88.0202 53.3H84.8602ZM92.9468 51.32H89.3868V51.92H91.9868L89.2468 55.52V56H93.0468V55.4H90.2068L92.9468 51.8V51.32ZM97.1878 48.44H96.5278V56H97.1878V48.44ZM101.25 53.13C100.13 53.13 98.3402 53.23 98.3402 54.75C98.3402 55.66 99.1202 56.12 99.9502 56.12C100.7 56.12 101.22 55.86 101.6 55.24H101.62C101.62 55.49 101.64 55.77 101.68 56H102.32C102.28 55.75 102.24 55.31 102.24 54.95V52.86C102.24 51.72 101.45 51.2 100.53 51.2C99.6502 51.2 98.9802 51.44 98.5502 51.88L98.9502 52.35C99.3502 51.99 99.8302 51.8 100.38 51.8C101.19 51.8 101.58 52.2 101.58 53.01V53.13H101.25ZM101.58 53.67V54.01C101.58 54.84 101.12 55.52 100.16 55.52C99.6302 55.52 99.0602 55.28 99.0602 54.66C99.0602 53.72 100.57 53.67 101.24 53.67H101.58ZM106.149 56H106.809V53.6C106.809 51.89 107.969 51.8 108.129 51.8C109.039 51.8 109.309 52.32 109.309 53.27V56H109.969V53.51C109.969 52.64 110.309 51.8 111.289 51.8C112.199 51.8 112.469 52.32 112.469 53.27V56H113.129V53.03C113.129 51.87 112.559 51.2 111.369 51.2C110.739 51.2 110.099 51.57 109.829 52.17C109.519 51.37 108.849 51.2 108.339 51.2C107.779 51.2 107.149 51.49 106.829 52.03H106.809V51.32H106.099C106.119 51.67 106.149 52.01 106.149 52.36V56ZM115.275 51.32H114.615V56H115.275V51.32ZM115.425 49.52C115.425 49.24 115.185 49.04 114.945 49.04C114.705 49.04 114.465 49.24 114.465 49.52C114.465 49.8 114.705 50 114.945 50C115.185 50 115.425 49.8 115.425 49.52ZM119.737 52.04C119.437 51.43 118.827 51.2 118.177 51.2C117.297 51.2 116.447 51.64 116.447 52.61C116.447 53.5 117.327 53.76 117.647 53.84L118.287 53.99C118.777 54.11 119.177 54.27 119.177 54.74C119.177 55.28 118.617 55.52 118.077 55.52C117.527 55.52 117.117 55.24 116.847 54.82L116.277 55.21C116.717 55.87 117.367 56.12 118.077 56.12C118.987 56.12 119.897 55.7 119.897 54.68C119.897 54.02 119.407 53.55 118.757 53.4L118.087 53.24C117.477 53.1 117.167 52.94 117.167 52.5C117.167 52 117.677 51.8 118.137 51.8C118.617 51.8 118.947 52.05 119.147 52.43L119.737 52.04ZM123.795 52.04C123.495 51.43 122.885 51.2 122.235 51.2C121.355 51.2 120.505 51.64 120.505 52.61C120.505 53.5 121.385 53.76 121.705 53.84L122.345 53.99C122.835 54.11 123.235 54.27 123.235 54.74C123.235 55.28 122.675 55.52 122.135 55.52C121.585 55.52 121.175 55.24 120.905 54.82L120.335 55.21C120.775 55.87 121.425 56.12 122.135 56.12C123.045 56.12 123.955 55.7 123.955 54.68C123.955 54.02 123.465 53.55 122.815 53.4L122.145 53.24C121.535 53.1 121.225 52.94 121.225 52.5C121.225 52 121.735 51.8 122.195 51.8C122.675 51.8 123.005 52.05 123.205 52.43L123.795 52.04ZM125.593 51.32H124.933V56H125.593V51.32ZM125.743 49.52C125.743 49.24 125.503 49.04 125.263 49.04C125.023 49.04 124.783 49.24 124.783 49.52C124.783 49.8 125.023 50 125.263 50C125.503 50 125.743 49.8 125.743 49.52ZM131.715 53.66C131.715 52.25 130.685 51.2 129.225 51.2C127.775 51.2 126.745 52.25 126.745 53.66C126.745 55.07 127.775 56.12 129.225 56.12C130.685 56.12 131.715 55.07 131.715 53.66ZM130.995 53.66C130.995 54.71 130.315 55.52 129.225 55.52C128.145 55.52 127.465 54.71 127.465 53.66C127.465 52.61 128.145 51.8 129.225 51.8C130.315 51.8 130.995 52.61 130.995 53.66ZM132.663 51.32C132.683 51.66 132.713 52.1 132.713 52.35V56H133.373V53.6C133.373 51.89 134.653 51.8 134.793 51.8C135.773 51.8 136.063 52.37 136.063 53.41V56H136.723V53.03C136.723 51.87 136.153 51.2 134.963 51.2C134.343 51.2 133.683 51.56 133.393 52.07H133.373C133.373 51.82 133.373 51.57 133.343 51.32H132.663ZM145.322 51.32H144.662V52.1H144.642C144.212 51.47 143.442 51.2 142.822 51.2C141.362 51.2 140.332 52.25 140.332 53.66C140.332 55.07 141.362 56.12 142.822 56.12C143.442 56.12 144.212 55.85 144.642 55.22H144.662V58.88H145.322V51.32ZM141.052 53.66C141.052 52.61 141.732 51.8 142.822 51.8C143.902 51.8 144.692 52.61 144.692 53.66C144.692 54.71 143.902 55.52 142.822 55.52C141.732 55.52 141.052 54.71 141.052 53.66ZM150.626 56C150.606 55.66 150.576 55.22 150.576 54.97V51.32H149.916V53.72C149.916 55.43 148.636 55.52 148.496 55.52C147.516 55.52 147.226 54.95 147.226 53.91V51.32H146.566V54.29C146.566 55.45 147.136 56.12 148.326 56.12C148.946 56.12 149.606 55.76 149.896 55.25H149.916C149.916 55.5 149.916 55.75 149.946 56H150.626ZM152.732 51.32H152.072V56H152.732V51.32ZM152.882 49.52C152.882 49.24 152.642 49.04 152.402 49.04C152.162 49.04 151.922 49.24 151.922 49.52C151.922 49.8 152.162 50 152.402 50C152.642 50 152.882 49.8 152.882 49.52ZM160.658 52.01C160.198 51.47 159.578 51.21 158.948 51.2C157.418 51.18 156.468 52.25 156.468 53.66C156.468 55.07 157.418 56.14 158.948 56.12C159.578 56.11 160.198 55.85 160.658 55.31L160.118 54.9C159.898 55.24 159.468 55.52 158.948 55.52C157.858 55.54 157.188 54.73 157.188 53.66C157.188 52.59 157.858 51.78 158.948 51.8C159.468 51.8 159.898 52.08 160.118 52.42L160.658 52.01ZM166.062 53.66C166.062 52.25 165.032 51.2 163.572 51.2C162.122 51.2 161.092 52.25 161.092 53.66C161.092 55.07 162.122 56.12 163.572 56.12C165.032 56.12 166.062 55.07 166.062 53.66ZM165.342 53.66C165.342 54.71 164.662 55.52 163.572 55.52C162.492 55.52 161.812 54.71 161.812 53.66C161.812 52.61 162.492 51.8 163.572 51.8C164.662 51.8 165.342 52.61 165.342 53.66ZM167.13 56H167.79V53.36C167.79 52.73 168.24 51.86 169.24 51.86C169.42 51.86 169.54 51.88 169.62 51.91L169.75 51.26C169.61 51.22 169.45 51.2 169.26 51.2C168.44 51.2 167.95 51.69 167.76 52.19H167.74V51.32H167.09C167.11 52 167.13 52.36 167.13 52.78V56ZM170.25 56H170.91V53.36C170.91 52.73 171.36 51.86 172.36 51.86C172.54 51.86 172.66 51.88 172.74 51.91L172.87 51.26C172.73 51.22 172.57 51.2 172.38 51.2C171.56 51.2 171.07 51.69 170.88 52.19H170.86V51.32H170.21C170.23 52 170.25 52.36 170.25 52.78V56ZM177.485 53.84V53.54C177.485 52.26 176.665 51.21 175.245 51.2C173.915 51.2 172.885 52.25 172.885 53.66C172.885 55.07 173.915 56.12 175.305 56.12C176.075 56.12 176.765 55.83 177.315 55.13L176.805 54.71C176.545 55.13 176.005 55.52 175.305 55.52C174.375 55.52 173.665 54.78 173.585 53.84H177.485ZM173.605 53.3C173.605 52.53 174.385 51.8 175.245 51.8C176.195 51.8 176.765 52.41 176.765 53.3H173.605ZM181.551 52.04C181.251 51.43 180.641 51.2 179.991 51.2C179.111 51.2 178.261 51.64 178.261 52.61C178.261 53.5 179.141 53.76 179.461 53.84L180.101 53.99C180.591 54.11 180.991 54.27 180.991 54.74C180.991 55.28 180.431 55.52 179.891 55.52C179.341 55.52 178.931 55.24 178.661 54.82L178.091 55.21C178.531 55.87 179.181 56.12 179.891 56.12C180.801 56.12 181.711 55.7 181.711 54.68C181.711 54.02 181.221 53.55 180.571 53.4L179.901 53.24C179.291 53.1 178.981 52.94 178.981 52.5C178.981 52 179.491 51.8 179.951 51.8C180.431 51.8 180.761 52.05 180.961 52.43L181.551 52.04ZM182.539 58.88H183.199V55.22H183.219C183.649 55.85 184.419 56.12 185.039 56.12C186.499 56.12 187.529 55.07 187.529 53.66C187.529 52.25 186.499 51.2 185.039 51.2C184.419 51.2 183.649 51.47 183.219 52.1H183.199V51.32H182.539V58.88ZM186.809 53.66C186.809 54.71 186.129 55.52 185.039 55.52C183.959 55.52 183.169 54.71 183.169 53.66C183.169 52.61 183.959 51.8 185.039 51.8C186.129 51.8 186.809 52.61 186.809 53.66ZM193.182 53.66C193.182 52.25 192.152 51.2 190.692 51.2C189.242 51.2 188.212 52.25 188.212 53.66C188.212 55.07 189.242 56.12 190.692 56.12C192.152 56.12 193.182 55.07 193.182 53.66ZM192.462 53.66C192.462 54.71 191.782 55.52 190.692 55.52C189.612 55.52 188.932 54.71 188.932 53.66C188.932 52.61 189.612 51.8 190.692 51.8C191.782 51.8 192.462 52.61 192.462 53.66ZM194.13 51.32C194.15 51.66 194.18 52.1 194.18 52.35V56H194.84V53.6C194.84 51.89 196.12 51.8 196.26 51.8C197.24 51.8 197.53 52.37 197.53 53.41V56H198.19V53.03C198.19 51.87 197.62 51.2 196.43 51.2C195.81 51.2 195.15 51.56 194.86 52.07H194.84C194.84 51.82 194.84 51.57 194.81 51.32H194.13ZM204.207 48.44H203.547V52.1H203.527C203.097 51.47 202.327 51.2 201.707 51.2C200.247 51.2 199.217 52.25 199.217 53.66C199.217 55.07 200.247 56.12 201.707 56.12C202.327 56.12 203.097 55.85 203.527 55.22H203.547V56H204.207V48.44ZM199.937 53.66C199.937 52.61 200.617 51.8 201.707 51.8C202.787 51.8 203.577 52.61 203.577 53.66C203.577 54.71 202.787 55.52 201.707 55.52C200.617 55.52 199.937 54.71 199.937 53.66ZM208.843 48.44H208.183V56H208.843V48.44ZM214.596 53.84V53.54C214.596 52.26 213.776 51.21 212.356 51.2C211.026 51.2 209.996 52.25 209.996 53.66C209.996 55.07 211.026 56.12 212.416 56.12C213.186 56.12 213.876 55.83 214.426 55.13L213.916 54.71C213.656 55.13 213.116 55.52 212.416 55.52C211.486 55.52 210.776 54.78 210.696 53.84H214.596ZM210.716 53.3C210.716 52.53 211.496 51.8 212.356 51.8C213.306 51.8 213.876 52.41 213.876 53.3H210.716ZM218.175 56H218.835V53.6C218.835 51.89 219.995 51.8 220.155 51.8C221.065 51.8 221.335 52.32 221.335 53.27V56H221.995V53.51C221.995 52.64 222.335 51.8 223.315 51.8C224.225 51.8 224.495 52.32 224.495 53.27V56H225.155V53.03C225.155 51.87 224.585 51.2 223.395 51.2C222.765 51.2 222.125 51.57 221.855 52.17C221.545 51.37 220.875 51.2 220.365 51.2C219.805 51.2 219.175 51.49 218.855 52.03H218.835V51.32H218.125C218.145 51.67 218.175 52.01 218.175 52.36V56ZM227.301 51.32H226.641V56H227.301V51.32ZM227.451 49.52C227.451 49.24 227.211 49.04 226.971 49.04C226.731 49.04 226.491 49.24 226.491 49.52C226.491 49.8 226.731 50 226.971 50C227.211 50 227.451 49.8 227.451 49.52ZM233.053 53.84V53.54C233.053 52.26 232.233 51.21 230.813 51.2C229.483 51.2 228.453 52.25 228.453 53.66C228.453 55.07 229.483 56.12 230.873 56.12C231.643 56.12 232.333 55.83 232.883 55.13L232.373 54.71C232.113 55.13 231.573 55.52 230.873 55.52C229.943 55.52 229.233 54.78 229.153 53.84H233.053ZM229.173 53.3C229.173 52.53 229.953 51.8 230.813 51.8C231.763 51.8 232.333 52.41 232.333 53.3H229.173ZM238.11 56C238.09 55.66 238.06 55.22 238.06 54.97V51.32H237.4V53.72C237.4 55.43 236.12 55.52 235.98 55.52C235 55.52 234.71 54.95 234.71 53.91V51.32H234.05V54.29C234.05 55.45 234.62 56.12 235.81 56.12C236.43 56.12 237.09 55.76 237.38 55.25H237.4C237.4 55.5 237.4 55.75 237.43 56H238.11ZM238.687 56H239.527L241.037 53.95L242.607 56H243.507L241.547 53.5L243.177 51.32H242.357L241.117 53.07L239.817 51.32H238.917L240.617 53.5L238.687 56ZM249.284 53.13C248.164 53.13 246.374 53.23 246.374 54.75C246.374 55.66 247.154 56.12 247.984 56.12C248.734 56.12 249.254 55.86 249.634 55.24H249.654C249.654 55.49 249.674 55.77 249.714 56H250.354C250.314 55.75 250.274 55.31 250.274 54.95V52.86C250.274 51.72 249.484 51.2 248.564 51.2C247.684 51.2 247.014 51.44 246.584 51.88L246.984 52.35C247.384 51.99 247.864 51.8 248.414 51.8C249.224 51.8 249.614 52.2 249.614 53.01V53.13H249.284ZM249.614 53.67V54.01C249.614 54.84 249.154 55.52 248.194 55.52C247.664 55.52 247.094 55.28 247.094 54.66C247.094 53.72 248.604 53.67 249.274 53.67H249.614ZM248.514 50.36H249.104L248.104 48.92H247.194L248.514 50.36ZM258.143 51.32H257.393L255.903 55.26H255.883L254.393 51.32H253.603L255.503 56H256.243L258.143 51.32ZM263.537 53.66C263.537 52.25 262.507 51.2 261.047 51.2C259.597 51.2 258.567 52.25 258.567 53.66C258.567 55.07 259.597 56.12 261.047 56.12C262.507 56.12 263.537 55.07 263.537 53.66ZM262.817 53.66C262.817 54.71 262.137 55.52 261.047 55.52C259.967 55.52 259.287 54.71 259.287 53.66C259.287 52.61 259.967 51.8 261.047 51.8C262.137 51.8 262.817 52.61 262.817 53.66ZM267.605 52.04C267.305 51.43 266.695 51.2 266.045 51.2C265.165 51.2 264.315 51.64 264.315 52.61C264.315 53.5 265.195 53.76 265.515 53.84L266.155 53.99C266.645 54.11 267.045 54.27 267.045 54.74C267.045 55.28 266.485 55.52 265.945 55.52C265.395 55.52 264.985 55.24 264.715 54.82L264.145 55.21C264.585 55.87 265.235 56.12 265.945 56.12C266.855 56.12 267.765 55.7 267.765 54.68C267.765 54.02 267.275 53.55 266.625 53.4L265.955 53.24C265.345 53.1 265.035 52.94 265.035 52.5C265.035 52 265.545 51.8 266.005 51.8C266.485 51.8 266.815 52.05 267.015 52.43L267.605 52.04ZM43.67 70.01C43.21 69.47 42.59 69.21 41.96 69.2C40.43 69.18 39.48 70.25 39.48 71.66C39.48 73.07 40.43 74.14 41.96 74.12C42.59 74.11 43.21 73.85 43.67 73.31L43.13 72.9C42.91 73.24 42.48 73.52 41.96 73.52C40.87 73.54 40.2 72.73 40.2 71.66C40.2 70.59 40.87 69.78 41.96 69.8C42.48 69.8 42.91 70.08 43.13 70.42L43.67 70.01ZM49.0742 71.66C49.0742 70.25 48.0442 69.2 46.5842 69.2C45.1342 69.2 44.1042 70.25 44.1042 71.66C44.1042 73.07 45.1342 74.12 46.5842 74.12C48.0442 74.12 49.0742 73.07 49.0742 71.66ZM48.3542 71.66C48.3542 72.71 47.6742 73.52 46.5842 73.52C45.5042 73.52 44.8242 72.71 44.8242 71.66C44.8242 70.61 45.5042 69.8 46.5842 69.8C47.6742 69.8 48.3542 70.61 48.3542 71.66ZM50.072 74H50.732V71.6C50.732 69.89 51.892 69.8 52.052 69.8C52.962 69.8 53.232 70.32 53.232 71.27V74H53.892V71.51C53.892 70.64 54.232 69.8 55.212 69.8C56.122 69.8 56.392 70.32 56.392 71.27V74H57.052V71.03C57.052 69.87 56.482 69.2 55.292 69.2C54.662 69.2 54.022 69.57 53.752 70.17C53.442 69.37 52.772 69.2 52.262 69.2C51.702 69.2 51.072 69.49 50.752 70.03H50.732V69.32H50.022C50.042 69.67 50.072 70.01 50.072 70.36V74ZM58.3876 76.88H59.0476V73.22H59.0676C59.4976 73.85 60.2676 74.12 60.8876 74.12C62.3476 74.12 63.3776 73.07 63.3776 71.66C63.3776 70.25 62.3476 69.2 60.8876 69.2C60.2676 69.2 59.4976 69.47 59.0676 70.1H59.0476V69.32H58.3876V76.88ZM62.6576 71.66C62.6576 72.71 61.9776 73.52 60.8876 73.52C59.8076 73.52 59.0176 72.71 59.0176 71.66C59.0176 70.61 59.8076 69.8 60.8876 69.8C61.9776 69.8 62.6576 70.61 62.6576 71.66ZM68.6609 71.84V71.54C68.6609 70.26 67.8409 69.21 66.4209 69.2C65.0909 69.2 64.0609 70.25 64.0609 71.66C64.0609 73.07 65.0909 74.12 66.4809 74.12C67.2509 74.12 67.9409 73.83 68.4909 73.13L67.9809 72.71C67.7209 73.13 67.1809 73.52 66.4809 73.52C65.5509 73.52 64.8409 72.78 64.7609 71.84H68.6609ZM64.7809 71.3C64.7809 70.53 65.5609 69.8 66.4209 69.8C67.3709 69.8 67.9409 70.41 67.9409 71.3H64.7809ZM67.6609 66.92H66.7509L65.7509 68.36H66.3409L67.6609 66.92ZM72.0775 69.32H70.7275V68H70.0675V69.32H69.0775V69.92H70.0675V72.87C70.0675 73.9 70.7275 74.12 71.2275 74.12C71.5575 74.12 71.8775 74.06 72.1175 73.95L72.0875 73.34C71.8875 73.45 71.6375 73.52 71.4075 73.52C70.9975 73.52 70.7275 73.38 70.7275 72.68V69.92H72.0775V69.32ZM77.1378 71.84V71.54C77.1378 70.26 76.3178 69.21 74.8978 69.2C73.5678 69.2 72.5378 70.25 72.5378 71.66C72.5378 73.07 73.5678 74.12 74.9578 74.12C75.7278 74.12 76.4178 73.83 76.9678 73.13L76.4578 72.71C76.1978 73.13 75.6578 73.52 74.9578 73.52C74.0278 73.52 73.3178 72.78 73.2378 71.84H77.1378ZM73.2578 71.3C73.2578 70.53 74.0378 69.8 74.8978 69.8C75.8478 69.8 76.4178 70.41 76.4178 71.3H73.2578ZM78.0845 69.32C78.1045 69.66 78.1345 70.1 78.1345 70.35V74H78.7945V71.6C78.7945 69.89 80.0745 69.8 80.2145 69.8C81.1945 69.8 81.4845 70.37 81.4845 71.41V74H82.1445V71.03C82.1445 69.87 81.5745 69.2 80.3845 69.2C79.7645 69.2 79.1045 69.56 78.8145 70.07H78.7945C78.7945 69.82 78.7945 69.57 78.7645 69.32H78.0845ZM87.4411 70.01C86.9811 69.47 86.3611 69.21 85.7311 69.2C84.2011 69.18 83.2511 70.25 83.2511 71.66C83.2511 73.07 84.2011 74.14 85.7311 74.12C86.3611 74.11 86.9811 73.85 87.4411 73.31L86.9011 72.9C86.6811 73.24 86.2511 73.52 85.7311 73.52C84.6411 73.54 83.9711 72.73 83.9711 71.66C83.9711 70.59 84.6411 69.78 85.7311 69.8C86.2511 69.8 86.6811 70.08 86.9011 70.42L87.4411 70.01ZM92.4753 71.84V71.54C92.4753 70.26 91.6553 69.21 90.2353 69.2C88.9053 69.2 87.8753 70.25 87.8753 71.66C87.8753 73.07 88.9053 74.12 90.2953 74.12C91.0653 74.12 91.7553 73.83 92.3053 73.13L91.7953 72.71C91.5353 73.13 90.9953 73.52 90.2953 73.52C89.3653 73.52 88.6553 72.78 88.5753 71.84H92.4753ZM88.5953 71.3C88.5953 70.53 89.3753 69.8 90.2353 69.8C91.1853 69.8 91.7553 70.41 91.7553 71.3H88.5953ZM96.542 70.04C96.242 69.43 95.632 69.2 94.982 69.2C94.102 69.2 93.252 69.64 93.252 70.61C93.252 71.5 94.132 71.76 94.452 71.84L95.092 71.99C95.582 72.11 95.982 72.27 95.982 72.74C95.982 73.28 95.422 73.52 94.882 73.52C94.332 73.52 93.922 73.24 93.652 72.82L93.082 73.21C93.522 73.87 94.172 74.12 94.882 74.12C95.792 74.12 96.702 73.7 96.702 72.68C96.702 72.02 96.212 71.55 95.562 71.4L94.892 71.24C94.282 71.1 93.972 70.94 93.972 70.5C93.972 70 94.482 69.8 94.942 69.8C95.422 69.8 95.752 70.05 95.952 70.43L96.542 70.04ZM104.473 71.84V71.54C104.473 70.26 103.653 69.21 102.233 69.2C100.903 69.2 99.873 70.25 99.873 71.66C99.873 73.07 100.903 74.12 102.293 74.12C103.063 74.12 103.753 73.83 104.303 73.13L103.793 72.71C103.533 73.13 102.993 73.52 102.293 73.52C101.363 73.52 100.653 72.78 100.573 71.84H104.473ZM100.593 71.3C100.593 70.53 101.373 69.8 102.233 69.8C103.183 69.8 103.753 70.41 103.753 71.3H100.593ZM107.89 69.32H106.54V68H105.88V69.32H104.89V69.92H105.88V72.87C105.88 73.9 106.54 74.12 107.04 74.12C107.37 74.12 107.69 74.06 107.93 73.95L107.9 73.34C107.7 73.45 107.45 73.52 107.22 73.52C106.81 73.52 106.54 73.38 106.54 72.68V69.92H107.89V69.32ZM111.983 69.32H111.323V74H111.983V69.32ZM112.133 67.52C112.133 67.24 111.893 67.04 111.653 67.04C111.413 67.04 111.173 67.24 111.173 67.52C111.173 67.8 111.413 68 111.653 68C111.893 68 112.133 67.8 112.133 67.52ZM113.325 69.32C113.345 69.66 113.375 70.1 113.375 70.35V74H114.035V71.6C114.035 69.89 115.315 69.8 115.455 69.8C116.435 69.8 116.725 70.37 116.725 71.41V74H117.385V71.03C117.385 69.87 116.815 69.2 115.625 69.2C115.005 69.2 114.345 69.56 114.055 70.07H114.035C114.035 69.82 114.035 69.57 114.005 69.32H113.325ZM121.152 69.32H119.802V68H119.142V69.32H118.152V69.92H119.142V72.87C119.142 73.9 119.802 74.12 120.302 74.12C120.632 74.12 120.952 74.06 121.192 73.95L121.162 73.34C120.962 73.45 120.712 73.52 120.482 73.52C120.072 73.52 119.802 73.38 119.802 72.68V69.92H121.152V69.32ZM126.212 71.84V71.54C126.212 70.26 125.392 69.21 123.972 69.2C122.642 69.2 121.612 70.25 121.612 71.66C121.612 73.07 122.642 74.12 124.032 74.12C124.802 74.12 125.492 73.83 126.042 73.13L125.532 72.71C125.272 73.13 124.732 73.52 124.032 73.52C123.102 73.52 122.392 72.78 122.312 71.84H126.212ZM122.332 71.3C122.332 70.53 123.112 69.8 123.972 69.8C124.922 69.8 125.492 70.41 125.492 71.3H122.332ZM125.212 66.92H124.302L123.302 68.36H123.892L125.212 66.92ZM127.279 74H127.939V71.36C127.939 70.73 128.389 69.86 129.389 69.86C129.569 69.86 129.689 69.88 129.769 69.91L129.899 69.26C129.759 69.22 129.599 69.2 129.409 69.2C128.589 69.2 128.099 69.69 127.909 70.19H127.889V69.32H127.239C127.259 70 127.279 70.36 127.279 70.78V74ZM134.514 71.84V71.54C134.514 70.26 133.694 69.21 132.274 69.2C130.944 69.2 129.914 70.25 129.914 71.66C129.914 73.07 130.944 74.12 132.334 74.12C133.104 74.12 133.794 73.83 134.344 73.13L133.834 72.71C133.574 73.13 133.034 73.52 132.334 73.52C131.404 73.52 130.694 72.78 130.614 71.84H134.514ZM130.634 71.3C130.634 70.53 131.414 69.8 132.274 69.8C133.224 69.8 133.794 70.41 133.794 71.3H130.634ZM132.614 66.92H131.814L130.724 68.36H131.384L132.214 67.28L133.044 68.36H133.704L132.614 66.92ZM137.93 69.32H136.58V68H135.92V69.32H134.93V69.92H135.92V72.87C135.92 73.9 136.58 74.12 137.08 74.12C137.41 74.12 137.73 74.06 137.97 73.95L137.94 73.34C137.74 73.45 137.49 73.52 137.26 73.52C136.85 73.52 136.58 73.38 136.58 72.68V69.92H137.93V69.32ZM141.701 70.04C141.401 69.43 140.791 69.2 140.141 69.2C139.261 69.2 138.411 69.64 138.411 70.61C138.411 71.5 139.291 71.76 139.611 71.84L140.251 71.99C140.741 72.11 141.141 72.27 141.141 72.74C141.141 73.28 140.581 73.52 140.041 73.52C139.491 73.52 139.081 73.24 138.811 72.82L138.241 73.21C138.681 73.87 139.331 74.12 140.041 74.12C140.951 74.12 141.861 73.7 141.861 72.68C141.861 72.02 141.371 71.55 140.721 71.4L140.051 71.24C139.441 71.1 139.131 70.94 139.131 70.5C139.131 70 139.641 69.8 140.101 69.8C140.581 69.8 140.911 70.05 141.111 70.43L141.701 70.04ZM147.942 71.13C146.822 71.13 145.032 71.23 145.032 72.75C145.032 73.66 145.812 74.12 146.642 74.12C147.392 74.12 147.912 73.86 148.292 73.24H148.312C148.312 73.49 148.332 73.77 148.372 74H149.012C148.972 73.75 148.932 73.31 148.932 72.95V70.86C148.932 69.72 148.142 69.2 147.222 69.2C146.342 69.2 145.672 69.44 145.242 69.88L145.642 70.35C146.042 69.99 146.522 69.8 147.072 69.8C147.882 69.8 148.272 70.2 148.272 71.01V71.13H147.942ZM148.272 71.67V72.01C148.272 72.84 147.812 73.52 146.852 73.52C146.322 73.52 145.752 73.28 145.752 72.66C145.752 71.72 147.262 71.67 147.932 71.67H148.272ZM154.317 74C154.297 73.66 154.267 73.22 154.267 72.97V69.32H153.607V71.72C153.607 73.43 152.327 73.52 152.187 73.52C151.207 73.52 150.917 72.95 150.917 71.91V69.32H150.257V72.29C150.257 73.45 150.827 74.12 152.017 74.12C152.637 74.12 153.297 73.76 153.587 73.25H153.607C153.607 73.5 153.607 73.75 153.637 74H154.317ZM155.614 76.88H156.274V73.22H156.294C156.724 73.85 157.494 74.12 158.114 74.12C159.574 74.12 160.604 73.07 160.604 71.66C160.604 70.25 159.574 69.2 158.114 69.2C157.494 69.2 156.724 69.47 156.294 70.1H156.274V69.32H155.614V76.88ZM159.884 71.66C159.884 72.71 159.204 73.52 158.114 73.52C157.034 73.52 156.244 72.71 156.244 71.66C156.244 70.61 157.034 69.8 158.114 69.8C159.204 69.8 159.884 70.61 159.884 71.66ZM161.597 74H162.257V71.36C162.257 70.73 162.707 69.86 163.707 69.86C163.887 69.86 164.007 69.88 164.087 69.91L164.217 69.26C164.077 69.22 163.917 69.2 163.727 69.2C162.907 69.2 162.417 69.69 162.227 70.19H162.207V69.32H161.557C161.577 70 161.597 70.36 161.597 70.78V74ZM168.832 71.84V71.54C168.832 70.26 168.012 69.21 166.592 69.2C165.262 69.2 164.232 70.25 164.232 71.66C164.232 73.07 165.262 74.12 166.652 74.12C167.422 74.12 168.112 73.83 168.662 73.13L168.152 72.71C167.892 73.13 167.352 73.52 166.652 73.52C165.722 73.52 165.012 72.78 164.932 71.84H168.832ZM164.952 71.3C164.952 70.53 165.732 69.8 166.592 69.8C167.542 69.8 168.112 70.41 168.112 71.3H164.952ZM166.552 68.36H167.142L166.142 66.92H165.232L166.552 68.36ZM172.898 70.04C172.598 69.43 171.988 69.2 171.338 69.2C170.458 69.2 169.608 69.64 169.608 70.61C169.608 71.5 170.488 71.76 170.808 71.84L171.448 71.99C171.938 72.11 172.338 72.27 172.338 72.74C172.338 73.28 171.778 73.52 171.238 73.52C170.688 73.52 170.278 73.24 170.008 72.82L169.438 73.21C169.878 73.87 170.528 74.12 171.238 74.12C172.148 74.12 173.058 73.7 173.058 72.68C173.058 72.02 172.568 71.55 171.918 71.4L171.248 71.24C170.638 71.1 170.328 70.94 170.328 70.5C170.328 70 170.838 69.8 171.298 69.8C171.778 69.8 172.108 70.05 172.308 70.43L172.898 70.04ZM181.139 66.44H180.479V70.1H180.459C180.029 69.47 179.259 69.2 178.639 69.2C177.179 69.2 176.149 70.25 176.149 71.66C176.149 73.07 177.179 74.12 178.639 74.12C179.259 74.12 180.029 73.85 180.459 73.22H180.479V74H181.139V66.44ZM176.869 71.66C176.869 70.61 177.549 69.8 178.639 69.8C179.719 69.8 180.509 70.61 180.509 71.66C180.509 72.71 179.719 73.52 178.639 73.52C177.549 73.52 176.869 72.71 176.869 71.66ZM186.743 71.84V71.54C186.743 70.26 185.923 69.21 184.503 69.2C183.173 69.2 182.143 70.25 182.143 71.66C182.143 73.07 183.173 74.12 184.563 74.12C185.333 74.12 186.023 73.83 186.573 73.13L186.063 72.71C185.803 73.13 185.263 73.52 184.563 73.52C183.633 73.52 182.923 72.78 182.843 71.84H186.743ZM182.863 71.3C182.863 70.53 183.643 69.8 184.503 69.8C185.453 69.8 186.023 70.41 186.023 71.3H182.863ZM190.272 69.32C190.292 69.66 190.322 70.1 190.322 70.35V74H190.982V71.6C190.982 69.89 192.262 69.8 192.402 69.8C193.382 69.8 193.672 70.37 193.672 71.41V74H194.332V71.03C194.332 69.87 193.762 69.2 192.572 69.2C191.952 69.2 191.292 69.56 191.002 70.07H190.982C190.982 69.82 190.982 69.57 190.952 69.32H190.272ZM200.409 71.66C200.409 70.25 199.379 69.2 197.919 69.2C196.469 69.2 195.439 70.25 195.439 71.66C195.439 73.07 196.469 74.12 197.919 74.12C199.379 74.12 200.409 73.07 200.409 71.66ZM199.689 71.66C199.689 72.71 199.009 73.52 197.919 73.52C196.839 73.52 196.159 72.71 196.159 71.66C196.159 70.61 196.839 69.8 197.919 69.8C199.009 69.8 199.689 70.61 199.689 71.66ZM204.477 70.04C204.177 69.43 203.567 69.2 202.917 69.2C202.037 69.2 201.187 69.64 201.187 70.61C201.187 71.5 202.067 71.76 202.387 71.84L203.027 71.99C203.517 72.11 203.917 72.27 203.917 72.74C203.917 73.28 203.357 73.52 202.817 73.52C202.267 73.52 201.857 73.24 201.587 72.82L201.017 73.21C201.457 73.87 202.107 74.12 202.817 74.12C203.727 74.12 204.637 73.7 204.637 72.68C204.637 72.02 204.147 71.55 203.497 71.4L202.827 71.24C202.217 71.1 201.907 70.94 201.907 70.5C201.907 70 202.417 69.8 202.877 69.8C203.357 69.8 203.687 70.05 203.887 70.43L204.477 70.04ZM207.918 75.46C208.518 76.1 209.238 76.4 210.168 76.4C212.268 76.4 212.678 74.98 212.678 73.96V69.32H212.018V70.1H211.998C211.458 69.37 210.748 69.2 210.188 69.2C208.808 69.2 207.808 70.26 207.808 71.62C207.808 72.99 208.898 74 210.248 74C210.928 74 211.578 73.75 211.998 73.12H212.018V73.96C212.018 74.97 211.538 75.8 210.198 75.8C209.448 75.8 208.798 75.46 208.408 74.94L207.918 75.46ZM208.528 71.6C208.528 70.62 209.288 69.8 210.268 69.8C211.368 69.8 212.038 70.62 212.038 71.6C212.078 72.68 211.228 73.4 210.268 73.4C209.288 73.4 208.528 72.58 208.528 71.6ZM214.031 74H214.691V71.36C214.691 70.73 215.141 69.86 216.141 69.86C216.321 69.86 216.441 69.88 216.521 69.91L216.651 69.26C216.511 69.22 216.351 69.2 216.161 69.2C215.341 69.2 214.851 69.69 214.661 70.19H214.641V69.32H213.991C214.011 70 214.031 70.36 214.031 70.78V74ZM219.751 71.13C218.631 71.13 216.841 71.23 216.841 72.75C216.841 73.66 217.621 74.12 218.451 74.12C219.201 74.12 219.721 73.86 220.101 73.24H220.121C220.121 73.49 220.141 73.77 220.181 74H220.821C220.781 73.75 220.741 73.31 220.741 72.95V70.86C220.741 69.72 219.951 69.2 219.031 69.2C218.151 69.2 217.481 69.44 217.051 69.88L217.451 70.35C217.851 69.99 218.331 69.8 218.881 69.8C219.691 69.8 220.081 70.2 220.081 71.01V71.13H219.751ZM220.081 71.67V72.01C220.081 72.84 219.621 73.52 218.661 73.52C218.131 73.52 217.561 73.28 217.561 72.66C217.561 71.72 219.071 71.67 219.741 71.67H220.081ZM222.017 69.32C222.037 69.66 222.067 70.1 222.067 70.35V74H222.727V71.6C222.727 69.89 224.007 69.8 224.147 69.8C225.127 69.8 225.417 70.37 225.417 71.41V74H226.077V71.03C226.077 69.87 225.507 69.2 224.317 69.2C223.697 69.2 223.037 69.56 222.747 70.07H222.727C222.727 69.82 222.727 69.57 222.697 69.32H222.017ZM232.094 66.44H231.434V70.1H231.414C230.984 69.47 230.214 69.2 229.594 69.2C228.134 69.2 227.104 70.25 227.104 71.66C227.104 73.07 228.134 74.12 229.594 74.12C230.214 74.12 230.984 73.85 231.414 73.22H231.434V74H232.094V66.44ZM227.824 71.66C227.824 70.61 228.504 69.8 229.594 69.8C230.674 69.8 231.464 70.61 231.464 71.66C231.464 72.71 230.674 73.52 229.594 73.52C228.504 73.52 227.824 72.71 227.824 71.66ZM236.407 70.04C236.107 69.43 235.497 69.2 234.847 69.2C233.967 69.2 233.117 69.64 233.117 70.61C233.117 71.5 233.997 71.76 234.317 71.84L234.957 71.99C235.447 72.11 235.847 72.27 235.847 72.74C235.847 73.28 235.287 73.52 234.747 73.52C234.197 73.52 233.787 73.24 233.517 72.82L232.947 73.21C233.387 73.87 234.037 74.12 234.747 74.12C235.657 74.12 236.567 73.7 236.567 72.68C236.567 72.02 236.077 71.55 235.427 71.4L234.757 71.24C234.147 71.1 233.837 70.94 233.837 70.5C233.837 70 234.347 69.8 234.807 69.8C235.287 69.8 235.617 70.05 235.817 70.43L236.407 70.04ZM43.67 88.01C43.21 87.47 42.59 87.21 41.96 87.2C40.43 87.18 39.48 88.25 39.48 89.66C39.48 91.07 40.43 92.14 41.96 92.12C42.59 92.11 43.21 91.85 43.67 91.31L43.13 90.9C42.91 91.24 42.48 91.52 41.96 91.52C40.87 91.54 40.2 90.73 40.2 89.66C40.2 88.59 40.87 87.78 41.96 87.8C42.48 87.8 42.91 88.08 43.13 88.42L43.67 88.01ZM49.0742 89.66C49.0742 88.25 48.0442 87.2 46.5842 87.2C45.1342 87.2 44.1042 88.25 44.1042 89.66C44.1042 91.07 45.1342 92.12 46.5842 92.12C48.0442 92.12 49.0742 91.07 49.0742 89.66ZM48.3542 89.66C48.3542 90.71 47.6742 91.52 46.5842 91.52C45.5042 91.52 44.8242 90.71 44.8242 89.66C44.8242 88.61 45.5042 87.8 46.5842 87.8C47.6742 87.8 48.3542 88.61 48.3542 89.66ZM50.072 92H50.732V89.6C50.732 87.89 51.892 87.8 52.052 87.8C52.962 87.8 53.232 88.32 53.232 89.27V92H53.892V89.51C53.892 88.64 54.232 87.8 55.212 87.8C56.122 87.8 56.392 88.32 56.392 89.27V92H57.052V89.03C57.052 87.87 56.482 87.2 55.292 87.2C54.662 87.2 54.022 87.57 53.752 88.17C53.442 87.37 52.772 87.2 52.262 87.2C51.702 87.2 51.072 87.49 50.752 88.03H50.732V87.32H50.022C50.042 87.67 50.072 88.01 50.072 88.36V92ZM58.3876 94.88H59.0476V91.22H59.0676C59.4976 91.85 60.2676 92.12 60.8876 92.12C62.3476 92.12 63.3776 91.07 63.3776 89.66C63.3776 88.25 62.3476 87.2 60.8876 87.2C60.2676 87.2 59.4976 87.47 59.0676 88.1H59.0476V87.32H58.3876V94.88ZM62.6576 89.66C62.6576 90.71 61.9776 91.52 60.8876 91.52C59.8076 91.52 59.0176 90.71 59.0176 89.66C59.0176 88.61 59.8076 87.8 60.8876 87.8C61.9776 87.8 62.6576 88.61 62.6576 89.66ZM66.7209 87.32H65.3709V86H64.7109V87.32H63.7209V87.92H64.7109V90.87C64.7109 91.9 65.3709 92.12 65.8709 92.12C66.2009 92.12 66.5209 92.06 66.7609 91.95L66.7309 91.34C66.5309 91.45 66.2809 91.52 66.0509 91.52C65.6409 91.52 65.3709 91.38 65.3709 90.68V87.92H66.7209V87.32ZM71.7812 89.84V89.54C71.7812 88.26 70.9612 87.21 69.5412 87.2C68.2112 87.2 67.1812 88.25 67.1812 89.66C67.1812 91.07 68.2112 92.12 69.6012 92.12C70.3712 92.12 71.0612 91.83 71.6112 91.13L71.1012 90.71C70.8412 91.13 70.3012 91.52 69.6012 91.52C68.6712 91.52 67.9612 90.78 67.8812 89.84H71.7812ZM67.9012 89.3C67.9012 88.53 68.6812 87.8 69.5412 87.8C70.4912 87.8 71.0612 88.41 71.0612 89.3H67.9012ZM75.8478 88.04C75.5478 87.43 74.9378 87.2 74.2878 87.2C73.4078 87.2 72.5578 87.64 72.5578 88.61C72.5578 89.5 73.4378 89.76 73.7578 89.84L74.3978 89.99C74.8878 90.11 75.2878 90.27 75.2878 90.74C75.2878 91.28 74.7278 91.52 74.1878 91.52C73.6378 91.52 73.2278 91.24 72.9578 90.82L72.3878 91.21C72.8278 91.87 73.4778 92.12 74.1878 92.12C75.0978 92.12 76.0078 91.7 76.0078 90.68C76.0078 90.02 75.5178 89.55 74.8678 89.4L74.1978 89.24C73.5878 89.1 73.2778 88.94 73.2778 88.5C73.2778 88 73.7878 87.8 74.2478 87.8C74.7278 87.8 75.0578 88.05 75.2578 88.43L75.8478 88.04ZM80.2288 87.32H79.5688V92H80.2288V87.32ZM80.3788 85.52C80.3788 85.24 80.1388 85.04 79.8988 85.04C79.6588 85.04 79.4188 85.24 79.4188 85.52C79.4188 85.8 79.6588 86 79.8988 86C80.1388 86 80.3788 85.8 80.3788 85.52ZM81.5712 87.32C81.5912 87.66 81.6212 88.1 81.6212 88.35V92H82.2812V89.6C82.2812 87.89 83.5612 87.8 83.7012 87.8C84.6812 87.8 84.9712 88.37 84.9712 89.41V92H85.6312V89.03C85.6312 87.87 85.0612 87.2 83.8712 87.2C83.2512 87.2 82.5912 87.56 82.3012 88.07H82.2812C82.2812 87.82 82.2812 87.57 82.2512 87.32H81.5712ZM89.3978 87.32H88.0478V86H87.3878V87.32H86.3978V87.92H87.3878V90.87C87.3878 91.9 88.0478 92.12 88.5478 92.12C88.8778 92.12 89.1978 92.06 89.4378 91.95L89.4078 91.34C89.2078 91.45 88.9578 91.52 88.7278 91.52C88.3178 91.52 88.0478 91.38 88.0478 90.68V87.92H89.3978V87.32ZM94.4581 89.84V89.54C94.4581 88.26 93.6381 87.21 92.2181 87.2C90.8881 87.2 89.8581 88.25 89.8581 89.66C89.8581 91.07 90.8881 92.12 92.2781 92.12C93.0481 92.12 93.7381 91.83 94.2881 91.13L93.7781 90.71C93.5181 91.13 92.9781 91.52 92.2781 91.52C91.3481 91.52 90.6381 90.78 90.5581 89.84H94.4581ZM90.5781 89.3C90.5781 88.53 91.3581 87.8 92.2181 87.8C93.1681 87.8 93.7381 88.41 93.7381 89.3H90.5781ZM95.5248 92H96.1848V89.36C96.1848 88.73 96.6348 87.86 97.6348 87.86C97.8148 87.86 97.9348 87.88 98.0148 87.91L98.1448 87.26C98.0048 87.22 97.8448 87.2 97.6548 87.2C96.8348 87.2 96.3448 87.69 96.1548 88.19H96.1348V87.32H95.4848C95.5048 88 95.5248 88.36 95.5248 88.78V92ZM98.7009 87.32C98.7209 87.66 98.7509 88.1 98.7509 88.35V92H99.4109V89.6C99.4109 87.89 100.691 87.8 100.831 87.8C101.811 87.8 102.101 88.37 102.101 89.41V92H102.761V89.03C102.761 87.87 102.191 87.2 101.001 87.2C100.381 87.2 99.7209 87.56 99.4309 88.07H99.4109C99.4109 87.82 99.4109 87.57 99.3809 87.32H98.7009ZM106.777 89.13C105.657 89.13 103.867 89.23 103.867 90.75C103.867 91.66 104.647 92.12 105.477 92.12C106.227 92.12 106.747 91.86 107.127 91.24H107.147C107.147 91.49 107.167 91.77 107.207 92H107.847C107.807 91.75 107.767 91.31 107.767 90.95V88.86C107.767 87.72 106.977 87.2 106.057 87.2C105.177 87.2 104.507 87.44 104.077 87.88L104.477 88.35C104.877 87.99 105.357 87.8 105.907 87.8C106.717 87.8 107.107 88.2 107.107 89.01V89.13H106.777ZM107.107 89.67V90.01C107.107 90.84 106.647 91.52 105.687 91.52C105.157 91.52 104.587 91.28 104.587 90.66C104.587 89.72 106.097 89.67 106.767 89.67H107.107ZM111.513 87.32H110.163V86H109.503V87.32H108.513V87.92H109.503V90.87C109.503 91.9 110.163 92.12 110.663 92.12C110.993 92.12 111.313 92.06 111.553 91.95L111.523 91.34C111.323 91.45 111.073 91.52 110.843 91.52C110.433 91.52 110.163 91.38 110.163 90.68V87.92H111.513V87.32ZM113.023 87.32H112.363V92H113.023V87.32ZM113.173 85.52C113.173 85.24 112.933 85.04 112.693 85.04C112.453 85.04 112.213 85.24 112.213 85.52C112.213 85.8 112.453 86 112.693 86C112.933 86 113.173 85.8 113.173 85.52ZM119.146 89.66C119.146 88.25 118.116 87.2 116.656 87.2C115.206 87.2 114.176 88.25 114.176 89.66C114.176 91.07 115.206 92.12 116.656 92.12C118.116 92.12 119.146 91.07 119.146 89.66ZM118.426 89.66C118.426 90.71 117.746 91.52 116.656 91.52C115.576 91.52 114.896 90.71 114.896 89.66C114.896 88.61 115.576 87.8 116.656 87.8C117.746 87.8 118.426 88.61 118.426 89.66ZM120.093 87.32C120.113 87.66 120.143 88.1 120.143 88.35V92H120.803V89.6C120.803 87.89 122.083 87.8 122.223 87.8C123.203 87.8 123.493 88.37 123.493 89.41V92H124.153V89.03C124.153 87.87 123.583 87.2 122.393 87.2C121.773 87.2 121.113 87.56 120.823 88.07H120.803C120.803 87.82 120.803 87.57 120.773 87.32H120.093ZM128.17 89.13C127.05 89.13 125.26 89.23 125.26 90.75C125.26 91.66 126.04 92.12 126.87 92.12C127.62 92.12 128.14 91.86 128.52 91.24H128.54C128.54 91.49 128.56 91.77 128.6 92H129.24C129.2 91.75 129.16 91.31 129.16 90.95V88.86C129.16 87.72 128.37 87.2 127.45 87.2C126.57 87.2 125.9 87.44 125.47 87.88L125.87 88.35C126.27 87.99 126.75 87.8 127.3 87.8C128.11 87.8 128.5 88.2 128.5 89.01V89.13H128.17ZM128.5 89.67V90.01C128.5 90.84 128.04 91.52 127.08 91.52C126.55 91.52 125.98 91.28 125.98 90.66C125.98 89.72 127.49 89.67 128.16 89.67H128.5ZM134.546 92C134.526 91.66 134.496 91.22 134.496 90.97V87.32H133.836V89.72C133.836 91.43 132.556 91.52 132.416 91.52C131.436 91.52 131.146 90.95 131.146 89.91V87.32H130.486V90.29C130.486 91.45 131.056 92.12 132.246 92.12C132.866 92.12 133.526 91.76 133.816 91.25H133.836C133.836 91.5 133.836 91.75 133.866 92H134.546ZM135.122 92H135.962L137.472 89.95L139.042 92H139.942L137.982 89.5L139.612 87.32H138.792L137.552 89.07L136.252 87.32H135.352L137.052 89.5L135.122 92ZM141.676 91.52C141.676 91.24 141.456 90.98 141.136 90.98C140.816 90.98 140.596 91.24 140.596 91.52C140.596 91.8 140.816 92.06 141.136 92.06C141.456 92.06 141.676 91.8 141.676 91.52Z" fill="white"/>
<rect x="213" y="106" width="63" height="32" rx="16" fill="#E5D64B"/>
<path d="M229.024 122.12H231.556V124.652H233.068V122.12H235.6V120.608H233.068V118.076H231.556V120.608H229.024V122.12ZM243.075 125H244.803V116.504H243.123L240.351 118.844L241.371 120.02L243.075 118.52V125ZM247.189 125H253.117V123.416H249.349L251.929 121.196C252.577 120.632 253.045 120.008 253.045 118.916C253.045 117.212 251.845 116.36 250.297 116.36C248.629 116.36 247.405 117.212 247.297 118.964L249.097 119.096C249.145 118.484 249.541 118.016 250.201 118.016C250.753 118.016 251.245 118.364 251.245 118.94C251.245 119.456 250.825 119.816 250.489 120.128L247.189 123.092V125ZM254.29 118.7C254.29 119.624 254.818 120.32 255.73 120.584V120.608C254.71 120.884 254.146 121.616 254.146 122.672C254.146 124.316 255.562 125.144 257.134 125.144C258.706 125.144 260.122 124.316 260.122 122.672C260.122 121.616 259.558 120.884 258.538 120.608V120.584C259.45 120.32 259.978 119.624 259.978 118.7C259.978 117.14 258.694 116.36 257.134 116.36C255.574 116.36 254.29 117.14 254.29 118.7ZM256.09 118.952C256.09 118.436 256.51 118.016 257.134 118.016C257.758 118.016 258.178 118.436 258.178 118.952C258.178 119.48 257.758 119.9 257.134 119.9C256.51 119.9 256.09 119.48 256.09 118.952ZM255.946 122.42C255.946 121.82 256.426 121.34 257.134 121.34C257.842 121.34 258.322 121.82 258.322 122.42C258.322 123.008 257.842 123.488 257.134 123.488C256.426 123.488 255.946 123.008 255.946 122.42Z" fill="#102962"/>
<rect x="39" y="106" width="32" height="32" rx="16" fill="#E5D64B"/>
<rect x="66" y="105" width="34" height="34" rx="17" fill="#E5D64B"/>
<rect x="66" y="105" width="34" height="34" rx="17" stroke="#253D72" stroke-width="2"/>
<rect x="94" y="105" width="34" height="34" rx="17" fill="#E5D64B"/>
<rect x="94" y="105" width="34" height="34" rx="17" stroke="#253D72" stroke-width="2"/>
<rect x="122" y="105" width="34" height="34" rx="17" fill="#E5D64B"/>
<rect x="122" y="105" width="34" height="34" rx="17" stroke="#253D72" stroke-width="2"/>
<defs>
<clipPath id="clip0_119_1369">
<rect x="11" y="17" width="24" height="24" rx="12" fill="white"/>
</clipPath>
</defs>
</svg>
