<svg width="24" height="24" viewBox="0 0 24 24" fill="none" xmlns="http://www.w3.org/2000/svg">
<g clip-path="url(#clip0_112_2154)">
<path d="M20.449 20.4495H16.8929V14.8804C16.8929 13.5525 16.8692 11.8429 15.0434 11.8429C13.1913 11.8429 12.9079 13.2899 12.9079 14.7838V20.4491H9.35197V8.99697H12.7657V10.562H12.8135C13.1551 9.97787 13.6488 9.49732 14.242 9.17154C14.8351 8.84577 15.5055 8.68697 16.1818 8.71206C19.786 8.71206 20.4505 11.0828 20.4505 14.167L20.449 20.4495ZM5.33947 7.43162C4.19975 7.43181 3.27566 6.508 3.27547 5.36828C3.27528 4.22856 4.199 3.30447 5.33872 3.30428C6.47844 3.304 7.40253 4.22781 7.40272 5.36753C7.40282 5.91484 7.1855 6.43978 6.79857 6.82687C6.41164 7.21396 5.88679 7.4315 5.33947 7.43162ZM7.11753 20.4496H3.55775V8.99697H7.11744V20.4495L7.11753 20.4496ZM22.2218 0.00174674H1.77088C0.804316 -0.00912826 0.0116599 0.765153 -0.000152588 1.73172V22.2679C0.0112849 23.235 0.803847 24.01 1.77078 23.9999H22.2218C23.1908 24.0119 23.9864 23.2368 23.9998 22.2679V1.73012C23.9861 0.761684 23.1903 -0.0125033 22.2218 0.00015299" fill="#0A66C2"/>
</g>
<defs>
<clipPath id="clip0_112_2154">
<rect width="24" height="24" fill="white"/>
</clipPath>
</defs>
</svg>
