<svg width="24" height="25" viewBox="0 0 24 25" fill="none" xmlns="http://www.w3.org/2000/svg">
<path d="M23.988 12.7323C23.988 11.7151 23.9064 10.9729 23.7297 10.2031H12.2391V14.7941H18.9838C18.8479 15.9351 18.1136 17.6533 16.4817 18.8079L16.4589 18.9616L20.092 21.8066L20.3437 21.832C22.6554 19.6739 23.988 16.4986 23.988 12.7323Z" fill="#4285F4"/>
<path d="M12.2391 24.8287C15.5434 24.8287 18.3175 23.729 20.3437 21.8321L16.4817 18.808C15.4483 19.5365 14.0612 20.0451 12.2391 20.0451C9.00269 20.0451 6.25584 17.8871 5.27667 14.9043L5.13314 14.9166L1.35537 17.872L1.30597 18.0108C3.3185 22.052 7.45241 24.8287 12.2391 24.8287Z" fill="#34A853"/>
<path d="M5.27666 14.9045C5.01829 14.1347 4.86877 13.3099 4.86877 12.4577C4.86877 11.6054 5.01829 10.7807 5.26306 10.011L5.25622 9.84705L1.43111 6.84424L1.30596 6.90441C0.476497 8.58141 0.000549316 10.4646 0.000549316 12.4577C0.000549316 14.4509 0.476497 16.334 1.30596 18.011L5.27666 14.9045Z" fill="#FBBC05"/>
<path d="M12.2391 4.8699C14.5372 4.8699 16.0873 5.87334 16.9713 6.71188L20.4252 3.30292C18.304 1.3098 15.5434 0.0864258 12.2391 0.0864258C7.45241 0.0864258 3.3185 2.86304 1.30597 6.90425L5.26307 10.0108C6.25584 7.02801 9.00269 4.8699 12.2391 4.8699Z" fill="#EB4335"/>
</svg>
